<svg width="212" height="40" viewBox="0 0 212 40" fill="none" xmlns="http://www.w3.org/2000/svg">
<g filter="url(#filter0_d_3_3)">
<mask id="path-1-outside-1_3_3" maskUnits="userSpaceOnUse" x="3" y="-1" width="206" height="34" fill="black">
<rect fill="white" x="3" y="-1" width="206" height="34"/>
<path d="M19.6875 10.2656L6.95312 17.0938L19.6875 23.6094L18.7656 25.5L4.48438 18.1406V15.9844L18.75 8.34375L19.6875 10.2656ZM29.125 3.09375H33.2031L38.6406 20.75L39.5625 24.5625L40.4531 20.7344L45.7031 3.09375H49.5938L53.4531 27H50.7969L47.8906 8.9375L47.4531 4.71875L46.5 8.96875L41.1094 26.9844H38.0312L32.4062 8.875L31.2969 4.71875L30.7656 8.90625L28.125 27H25.4375L29.125 3.09375ZM73.0781 18.8125C73.0781 22.25 73.1771 24.9375 73.375 26.875L71.0469 27.0625L70.6719 24.8594C69.4531 25.8698 68.0312 26.599 66.4062 27.0469C65.7604 27.224 64.9896 27.3125 64.0938 27.3125C63.2083 27.3125 62.4115 27.2083 61.7031 27C61.0052 26.7812 60.4479 26.4375 60.0312 25.9688C59.2708 25.125 58.8906 23.5885 58.8906 21.3594V8.40625H61.5156V20.9375C61.5156 22.4375 61.6615 23.4062 61.9531 23.8438C62.2448 24.2708 62.5885 24.5625 62.9844 24.7188C63.3906 24.8646 63.8698 24.9375 64.4219 24.9375C64.974 24.9375 65.5052 24.8958 66.0156 24.8125C66.5365 24.7188 67.0573 24.5885 67.5781 24.4219C68.6719 24.0677 69.6615 23.5833 70.5469 22.9688V22.9531C70.5052 22.1615 70.4844 20.6198 70.4844 18.3281V8.40625H73.0781V18.8125ZM87 10.6719C85.6667 10.6719 84.3073 11.3385 82.9219 12.6719V27H80.3281V8.40625H82.6094L82.8594 10.875C83.349 10.1146 83.875 9.52083 84.4375 9.09375C85.0104 8.66667 85.4792 8.40625 85.8438 8.3125C86.3646 8.16667 86.8594 8.09375 87.3281 8.09375C87.7969 8.09375 88.3854 8.1875 89.0938 8.375L88.8594 10.8594C88.3281 10.7344 87.7083 10.6719 87 10.6719ZM95.5312 3.95312C94.8333 3.95312 94.3854 3.85417 94.1875 3.65625C93.875 3.33333 93.7188 2.89062 93.7188 2.32812C93.7188 1.75521 93.75 1.34896 93.8125 1.10938C93.8854 0.859375 93.9896 0.666667 94.125 0.53125C94.375 0.28125 94.7552 0.15625 95.2656 0.15625C95.7865 0.15625 96.1562 0.182292 96.375 0.234375C96.6042 0.286458 96.7917 0.385417 96.9375 0.53125C97.1875 0.78125 97.3125 1.19271 97.3125 1.76562C97.3125 2.32812 97.2812 2.73438 97.2188 2.98438C97.1667 3.22396 97.0729 3.41667 96.9375 3.5625C96.6771 3.82292 96.2083 3.95312 95.5312 3.95312ZM94.2656 8.40625H96.8281V27H94.2969L94.2656 8.40625ZM118.922 26.0156C116.766 26.8802 114.385 27.3125 111.781 27.3125C110.271 27.3125 108.99 27.1562 107.938 26.8438C106.26 26.3646 105.146 25.375 104.594 23.875C104.083 22.4688 103.828 20.3854 103.828 17.625V16.8281C103.828 13.526 104.516 11.2083 105.891 9.875C107.13 8.6875 109.198 8.09375 112.094 8.09375C114.917 8.09375 116.844 8.79167 117.875 10.1875C118.375 10.8646 118.703 11.6875 118.859 12.6562C119.026 13.6146 119.109 14.5312 119.109 15.4062C119.109 16.7708 119.078 17.8281 119.016 18.5781C117.547 18.6406 116.229 18.6719 115.062 18.6719C115.062 18.6719 114.224 18.6719 112.547 18.6719C109.922 18.6719 107.901 18.5573 106.484 18.3281C106.484 20.724 106.786 22.3958 107.391 23.3438C108.13 24.5 109.604 25.0781 111.812 25.0781C114.021 25.0781 116.135 24.6458 118.156 23.7812L118.922 26.0156ZM116.469 16.5V15C116.469 13.3646 116.151 12.1979 115.516 11.5C114.807 10.7188 113.583 10.3281 111.844 10.3281C109.76 10.3281 108.339 10.7812 107.578 11.6875C106.849 12.5521 106.484 14.1562 106.484 16.5H116.469ZM126.234 0.4375L128.812 0.21875V27H126.266L126.234 0.4375ZM146.328 29.8906V31.7344H132.766V29.8906H146.328ZM154.812 3.09375H158.453L166.812 27H163.984L161.609 19.9844H151.984L149.734 27H146.984L154.812 3.09375ZM160.859 17.75L156.641 5.20312L156.156 6.98438L152.703 17.75H160.859ZM180.547 19.5C180.12 19.5208 179.37 19.5312 178.297 19.5312C177.234 19.5312 175.76 19.3906 173.875 19.1094V27H171.219V3.1875C174.25 2.90625 177.266 2.76562 180.266 2.76562C182.786 2.76562 184.552 3.33333 185.562 4.46875C186.417 5.42708 186.844 7.01042 186.844 9.21875V11.0625C186.844 12.7708 186.656 14.2292 186.281 15.4375C185.479 17.9583 183.568 19.3125 180.547 19.5ZM180.375 5.01562C177.521 5.01562 175.354 5.07292 173.875 5.1875V16.9062C175.698 17.1458 177.318 17.2656 178.734 17.2656C180.161 17.2656 181.182 17.1667 181.797 16.9688C182.422 16.7604 182.906 16.4167 183.25 15.9375C183.833 15.125 184.125 13.5104 184.125 11.0938V9.15625C184.125 7.66667 183.833 6.60417 183.25 5.96875C182.688 5.33333 181.729 5.01562 180.375 5.01562ZM192.281 23.5781L205.016 16.75L192.281 10.2344L193.203 8.34375L207.484 15.7031V17.8594L193.219 25.5L192.281 23.5781Z"/>
</mask>
<path d="M19.6875 10.2656L6.95312 17.0938L19.6875 23.6094L18.7656 25.5L4.48438 18.1406V15.9844L18.75 8.34375L19.6875 10.2656ZM29.125 3.09375H33.2031L38.6406 20.75L39.5625 24.5625L40.4531 20.7344L45.7031 3.09375H49.5938L53.4531 27H50.7969L47.8906 8.9375L47.4531 4.71875L46.5 8.96875L41.1094 26.9844H38.0312L32.4062 8.875L31.2969 4.71875L30.7656 8.90625L28.125 27H25.4375L29.125 3.09375ZM73.0781 18.8125C73.0781 22.25 73.1771 24.9375 73.375 26.875L71.0469 27.0625L70.6719 24.8594C69.4531 25.8698 68.0312 26.599 66.4062 27.0469C65.7604 27.224 64.9896 27.3125 64.0938 27.3125C63.2083 27.3125 62.4115 27.2083 61.7031 27C61.0052 26.7812 60.4479 26.4375 60.0312 25.9688C59.2708 25.125 58.8906 23.5885 58.8906 21.3594V8.40625H61.5156V20.9375C61.5156 22.4375 61.6615 23.4062 61.9531 23.8438C62.2448 24.2708 62.5885 24.5625 62.9844 24.7188C63.3906 24.8646 63.8698 24.9375 64.4219 24.9375C64.974 24.9375 65.5052 24.8958 66.0156 24.8125C66.5365 24.7188 67.0573 24.5885 67.5781 24.4219C68.6719 24.0677 69.6615 23.5833 70.5469 22.9688V22.9531C70.5052 22.1615 70.4844 20.6198 70.4844 18.3281V8.40625H73.0781V18.8125ZM87 10.6719C85.6667 10.6719 84.3073 11.3385 82.9219 12.6719V27H80.3281V8.40625H82.6094L82.8594 10.875C83.349 10.1146 83.875 9.52083 84.4375 9.09375C85.0104 8.66667 85.4792 8.40625 85.8438 8.3125C86.3646 8.16667 86.8594 8.09375 87.3281 8.09375C87.7969 8.09375 88.3854 8.1875 89.0938 8.375L88.8594 10.8594C88.3281 10.7344 87.7083 10.6719 87 10.6719ZM95.5312 3.95312C94.8333 3.95312 94.3854 3.85417 94.1875 3.65625C93.875 3.33333 93.7188 2.89062 93.7188 2.32812C93.7188 1.75521 93.75 1.34896 93.8125 1.10938C93.8854 0.859375 93.9896 0.666667 94.125 0.53125C94.375 0.28125 94.7552 0.15625 95.2656 0.15625C95.7865 0.15625 96.1562 0.182292 96.375 0.234375C96.6042 0.286458 96.7917 0.385417 96.9375 0.53125C97.1875 0.78125 97.3125 1.19271 97.3125 1.76562C97.3125 2.32812 97.2812 2.73438 97.2188 2.98438C97.1667 3.22396 97.0729 3.41667 96.9375 3.5625C96.6771 3.82292 96.2083 3.95312 95.5312 3.95312ZM94.2656 8.40625H96.8281V27H94.2969L94.2656 8.40625ZM118.922 26.0156C116.766 26.8802 114.385 27.3125 111.781 27.3125C110.271 27.3125 108.99 27.1562 107.938 26.8438C106.26 26.3646 105.146 25.375 104.594 23.875C104.083 22.4688 103.828 20.3854 103.828 17.625V16.8281C103.828 13.526 104.516 11.2083 105.891 9.875C107.13 8.6875 109.198 8.09375 112.094 8.09375C114.917 8.09375 116.844 8.79167 117.875 10.1875C118.375 10.8646 118.703 11.6875 118.859 12.6562C119.026 13.6146 119.109 14.5312 119.109 15.4062C119.109 16.7708 119.078 17.8281 119.016 18.5781C117.547 18.6406 116.229 18.6719 115.062 18.6719C115.062 18.6719 114.224 18.6719 112.547 18.6719C109.922 18.6719 107.901 18.5573 106.484 18.3281C106.484 20.724 106.786 22.3958 107.391 23.3438C108.13 24.5 109.604 25.0781 111.812 25.0781C114.021 25.0781 116.135 24.6458 118.156 23.7812L118.922 26.0156ZM116.469 16.5V15C116.469 13.3646 116.151 12.1979 115.516 11.5C114.807 10.7188 113.583 10.3281 111.844 10.3281C109.76 10.3281 108.339 10.7812 107.578 11.6875C106.849 12.5521 106.484 14.1562 106.484 16.5H116.469ZM126.234 0.4375L128.812 0.21875V27H126.266L126.234 0.4375ZM146.328 29.8906V31.7344H132.766V29.8906H146.328ZM154.812 3.09375H158.453L166.812 27H163.984L161.609 19.9844H151.984L149.734 27H146.984L154.812 3.09375ZM160.859 17.75L156.641 5.20312L156.156 6.98438L152.703 17.75H160.859ZM180.547 19.5C180.12 19.5208 179.37 19.5312 178.297 19.5312C177.234 19.5312 175.76 19.3906 173.875 19.1094V27H171.219V3.1875C174.25 2.90625 177.266 2.76562 180.266 2.76562C182.786 2.76562 184.552 3.33333 185.562 4.46875C186.417 5.42708 186.844 7.01042 186.844 9.21875V11.0625C186.844 12.7708 186.656 14.2292 186.281 15.4375C185.479 17.9583 183.568 19.3125 180.547 19.5ZM180.375 5.01562C177.521 5.01562 175.354 5.07292 173.875 5.1875V16.9062C175.698 17.1458 177.318 17.2656 178.734 17.2656C180.161 17.2656 181.182 17.1667 181.797 16.9688C182.422 16.7604 182.906 16.4167 183.25 15.9375C183.833 15.125 184.125 13.5104 184.125 11.0938V9.15625C184.125 7.66667 183.833 6.60417 183.25 5.96875C182.688 5.33333 181.729 5.01562 180.375 5.01562ZM192.281 23.5781L205.016 16.75L192.281 10.2344L193.203 8.34375L207.484 15.7031V17.8594L193.219 25.5L192.281 23.5781Z" fill="white"/>
<path d="M19.6875 10.2656L20.1601 11.1469L21.0082 10.6922L20.5863 9.8272L19.6875 10.2656ZM6.95312 17.0938L6.48057 16.2124L4.79826 17.1145L6.49763 17.984L6.95312 17.0938ZM19.6875 23.6094L20.5863 24.0477L21.0163 23.1659L20.143 22.7191L19.6875 23.6094ZM18.7656 25.5L18.3076 26.3889L19.2164 26.8572L19.6645 25.9383L18.7656 25.5ZM4.48438 18.1406H3.48438V18.7503L4.0263 19.0295L4.48438 18.1406ZM4.48438 15.9844L4.01223 15.1029L3.48438 15.3856V15.9844H4.48438ZM18.75 8.34375L19.6488 7.90533L19.1934 6.97186L18.2779 7.46223L18.75 8.34375ZM19.2149 9.38432L6.48057 16.2124L7.42568 17.9751L20.1601 11.1469L19.2149 9.38432ZM6.49763 17.984L19.232 24.4996L20.143 22.7191L7.40862 16.2035L6.49763 17.984ZM18.7887 23.1711L17.8668 25.0617L19.6645 25.9383L20.5863 24.0477L18.7887 23.1711ZM19.2237 24.6111L4.94245 17.2517L4.0263 19.0295L18.3076 26.3889L19.2237 24.6111ZM5.48438 18.1406V15.9844H3.48438V18.1406H5.48438ZM4.95652 16.8659L19.2221 9.22527L18.2779 7.46223L4.01223 15.1029L4.95652 16.8659ZM17.8512 8.78217L18.7887 10.704L20.5863 9.8272L19.6488 7.90533L17.8512 8.78217ZM29.125 3.09375V2.09375H28.2674L28.1367 2.9413L29.125 3.09375ZM33.2031 3.09375L34.1588 2.79943L33.9415 2.09375H33.2031V3.09375ZM38.6406 20.75L39.6126 20.515L39.6054 20.4851L39.5963 20.4557L38.6406 20.75ZM39.5625 24.5625L38.5905 24.7975L40.5365 24.7891L39.5625 24.5625ZM40.4531 20.7344L39.4947 20.4491L39.486 20.4782L39.4791 20.5078L40.4531 20.7344ZM45.7031 3.09375V2.09375H44.9574L44.7447 2.80851L45.7031 3.09375ZM49.5938 3.09375L50.581 2.93438L50.4453 2.09375H49.5938V3.09375ZM53.4531 27V28H54.6275L54.4403 26.8406L53.4531 27ZM50.7969 27L49.8096 27.1589L49.9449 28H50.7969V27ZM47.8906 8.9375L46.896 9.04065L46.8989 9.06861L46.9033 9.09636L47.8906 8.9375ZM47.4531 4.71875L48.4478 4.6156L46.4774 4.49992L47.4531 4.71875ZM46.5 8.96875L47.458 9.25541L47.4681 9.22181L47.4758 9.18758L46.5 8.96875ZM41.1094 26.9844V27.9844H41.854L42.0674 27.271L41.1094 26.9844ZM38.0312 26.9844L37.0763 27.281L37.2947 27.9844H38.0312V26.9844ZM32.4062 8.875L31.4401 9.13289L31.4453 9.15237L31.4513 9.17163L32.4062 8.875ZM31.2969 4.71875L32.263 4.46086L30.3048 4.59289L31.2969 4.71875ZM30.7656 8.90625L31.7551 9.05066L31.7565 9.0414L31.7577 9.03211L30.7656 8.90625ZM28.125 27V28H28.9897L29.1145 27.1444L28.125 27ZM25.4375 27L24.4492 26.8476L24.2714 28H25.4375V27ZM29.125 4.09375H33.2031V2.09375H29.125V4.09375ZM32.2474 3.38807L37.6849 21.0443L39.5963 20.4557L34.1588 2.79943L32.2474 3.38807ZM37.6686 20.985L38.5905 24.7975L40.5345 24.3275L39.6126 20.515L37.6686 20.985ZM40.5365 24.7891L41.4271 20.961L39.4791 20.5078L38.5885 24.3359L40.5365 24.7891ZM41.4116 21.0196L46.6616 3.37899L44.7447 2.80851L39.4947 20.4491L41.4116 21.0196ZM45.7031 4.09375H49.5938V2.09375H45.7031V4.09375ZM48.6065 3.25312L52.4659 27.1594L54.4403 26.8406L50.581 2.93438L48.6065 3.25312ZM53.4531 26H50.7969V28H53.4531V26ZM51.7842 26.8411L48.8779 8.77864L46.9033 9.09636L49.8096 27.1589L51.7842 26.8411ZM48.8853 8.83435L48.4478 4.6156L46.4585 4.8219L46.896 9.04065L48.8853 8.83435ZM46.4774 4.49992L45.5242 8.74992L47.4758 9.18758L48.4289 4.93758L46.4774 4.49992ZM45.542 8.68209L40.1513 26.6977L42.0674 27.271L47.458 9.25541L45.542 8.68209ZM41.1094 25.9844H38.0312V27.9844H41.1094V25.9844ZM38.9862 26.6877L33.3612 8.57837L31.4513 9.17163L37.0763 27.281L38.9862 26.6877ZM33.3724 8.61711L32.263 4.46086L30.3307 4.97664L31.4401 9.13289L33.3724 8.61711ZM30.3048 4.59289L29.7736 8.78039L31.7577 9.03211L32.2889 4.84461L30.3048 4.59289ZM29.7761 8.76184L27.1355 26.8556L29.1145 27.1444L31.7551 9.05066L29.7761 8.76184ZM28.125 26H25.4375V28H28.125V26ZM26.4258 27.1524L30.1133 3.2462L28.1367 2.9413L24.4492 26.8476L26.4258 27.1524ZM73.375 26.875L73.4553 27.8718L74.4736 27.7898L74.3698 26.7734L73.375 26.875ZM71.0469 27.0625L70.0611 27.2303L70.2147 28.1328L71.1272 28.0593L71.0469 27.0625ZM70.6719 24.8594L71.6577 24.6916L71.3671 22.9841L70.0336 24.0895L70.6719 24.8594ZM66.4062 27.0469L66.6707 28.0113L66.672 28.0109L66.4062 27.0469ZM61.7031 27L61.404 27.9542L61.4125 27.9569L61.421 27.9594L61.7031 27ZM60.0312 25.9688L60.7787 25.3044L60.7741 25.2993L60.0312 25.9688ZM58.8906 8.40625V7.40625H57.8906V8.40625H58.8906ZM61.5156 8.40625H62.5156V7.40625H61.5156V8.40625ZM61.9531 23.8438L61.121 24.3985L61.1273 24.4077L61.9531 23.8438ZM62.9844 24.7188L62.6172 25.6489L62.6318 25.6547L62.6465 25.6599L62.9844 24.7188ZM66.0156 24.8125L66.1768 25.7994L66.1848 25.7981L66.1928 25.7967L66.0156 24.8125ZM67.5781 24.4219L67.8829 25.3743L67.8862 25.3732L67.5781 24.4219ZM70.5469 22.9688L71.1171 23.7902L71.5469 23.4919V22.9688H70.5469ZM70.5469 22.9531H71.5469V22.9268L71.5455 22.9006L70.5469 22.9531ZM70.4844 8.40625V7.40625H69.4844V8.40625H70.4844ZM73.0781 8.40625H74.0781V7.40625H73.0781V8.40625ZM72.0781 18.8125C72.0781 22.2625 72.1772 24.9892 72.3802 26.9766L74.3698 26.7734C74.177 24.8858 74.0781 22.2375 74.0781 18.8125H72.0781ZM73.2947 25.8782L70.9666 26.0657L71.1272 28.0593L73.4553 27.8718L73.2947 25.8782ZM72.0327 26.8947L71.6577 24.6916L69.6861 25.0272L70.0611 27.2303L72.0327 26.8947ZM70.0336 24.0895C68.9309 25.0038 67.638 25.6701 66.1405 26.0828L66.672 28.0109C68.4245 27.5279 69.9754 26.7358 71.3101 25.6292L70.0336 24.0895ZM66.1418 26.0825C65.6055 26.2295 64.9283 26.3125 64.0938 26.3125V28.3125C65.0509 28.3125 65.9153 28.2184 66.6707 28.0113L66.1418 26.0825ZM64.0938 26.3125C63.2855 26.3125 62.5859 26.2173 61.9853 26.0406L61.421 27.9594C62.237 28.1994 63.1312 28.3125 64.0938 28.3125V26.3125ZM62.0022 26.0458C61.4481 25.8721 61.0561 25.6165 60.7787 25.3044L59.2838 26.6331C59.8397 27.2585 60.5623 27.6904 61.404 27.9542L62.0022 26.0458ZM60.7741 25.2993C60.2785 24.7494 59.8906 23.5468 59.8906 21.3594H57.8906C57.8906 23.6303 58.2632 25.5006 59.2884 26.6382L60.7741 25.2993ZM59.8906 21.3594V8.40625H57.8906V21.3594H59.8906ZM58.8906 9.40625H61.5156V7.40625H58.8906V9.40625ZM60.5156 8.40625V20.9375H62.5156V8.40625H60.5156ZM60.5156 20.9375C60.5156 21.7141 60.553 22.3857 60.6361 22.9379C60.7152 23.4633 60.8507 23.9928 61.1211 24.3985L62.7852 23.289C62.7852 23.2891 62.7847 23.2883 62.7836 23.2865C62.7825 23.2847 62.781 23.2821 62.7791 23.2786C62.7752 23.2713 62.7698 23.2608 62.7634 23.2463C62.7502 23.217 62.7341 23.1754 62.7166 23.1189C62.681 23.0045 62.6451 22.8475 62.6139 22.6402C62.5512 22.2237 62.5156 21.6609 62.5156 20.9375H60.5156ZM61.1273 24.4077C61.5072 24.964 61.9985 25.4047 62.6172 25.6489L63.3515 23.7886C63.1786 23.7203 62.9824 23.5777 62.7789 23.2798L61.1273 24.4077ZM62.6465 25.6599C63.1866 25.8538 63.7852 25.9375 64.4219 25.9375V23.9375C63.9544 23.9375 63.5946 23.8753 63.3222 23.7776L62.6465 25.6599ZM64.4219 25.9375C65.0243 25.9375 65.6096 25.892 66.1768 25.7994L65.8545 23.8256C65.4008 23.8996 64.9236 23.9375 64.4219 23.9375V25.9375ZM66.1928 25.7967C66.7582 25.6949 67.3217 25.5539 67.8829 25.3743L67.2733 23.4695C66.7929 23.6232 66.3147 23.7426 65.8385 23.8283L66.1928 25.7967ZM67.8862 25.3732C69.067 24.9909 70.1459 24.4643 71.1171 23.7902L69.9767 22.1473C69.177 22.7023 68.2767 23.1445 67.2701 23.4705L67.8862 25.3732ZM71.5469 22.9688V22.9531H69.5469V22.9688H71.5469ZM71.5455 22.9006C71.5054 22.1393 71.4844 20.6234 71.4844 18.3281H69.4844C69.4844 20.6161 69.505 22.1836 69.5483 23.0057L71.5455 22.9006ZM71.4844 18.3281V8.40625H69.4844V18.3281H71.4844ZM70.4844 9.40625H73.0781V7.40625H70.4844V9.40625ZM72.0781 8.40625V18.8125H74.0781V8.40625H72.0781ZM82.9219 12.6719L82.2284 11.9514L81.9219 12.2464V12.6719H82.9219ZM82.9219 27V28H83.9219V27H82.9219ZM80.3281 27H79.3281V28H80.3281V27ZM80.3281 8.40625V7.40625H79.3281V8.40625H80.3281ZM82.6094 8.40625L83.6043 8.3055L83.5132 7.40625H82.6094V8.40625ZM82.8594 10.875L81.8645 10.9758L82.1525 13.8202L83.7002 11.4163L82.8594 10.875ZM84.4375 9.09375L83.8398 8.29197L83.8328 8.2973L84.4375 9.09375ZM85.8438 8.3125L86.0928 9.28099L86.1031 9.27834L86.1134 9.27546L85.8438 8.3125ZM89.0938 8.375L90.0893 8.46892L90.1689 7.62516L89.3496 7.40829L89.0938 8.375ZM88.8594 10.8594L88.6303 11.8328L89.7472 12.0956L89.855 10.9533L88.8594 10.8594ZM87 9.67188C85.3129 9.67188 83.718 10.5178 82.2284 11.9514L83.6153 13.3924C84.8966 12.1593 86.0204 11.6719 87 11.6719V9.67188ZM81.9219 12.6719V27H83.9219V12.6719H81.9219ZM82.9219 26H80.3281V28H82.9219V26ZM81.3281 27V8.40625H79.3281V27H81.3281ZM80.3281 9.40625H82.6094V7.40625H80.3281V9.40625ZM81.6145 8.507L81.8645 10.9758L83.8543 10.7742L83.6043 8.3055L81.6145 8.507ZM83.7002 11.4163C84.1434 10.7279 84.5947 10.23 85.0422 9.8902L83.8328 8.2973C83.1553 8.81167 82.5545 9.50131 82.0186 10.3337L83.7002 11.4163ZM85.0352 9.8955C85.5805 9.48899 85.9219 9.32493 86.0928 9.28099L85.5947 7.34401C85.0364 7.48757 84.4404 7.84434 83.8398 8.292L85.0352 9.8955ZM86.1134 9.27546C86.5596 9.15052 86.9633 9.09375 87.3281 9.09375V7.09375C86.7555 7.09375 86.1696 7.18281 85.5741 7.34954L86.1134 9.27546ZM87.3281 9.09375C87.6763 9.09375 88.1718 9.1654 88.8379 9.34171L89.3496 7.40829C88.599 7.2096 87.9175 7.09375 87.3281 7.09375V9.09375ZM88.0982 8.28108L87.8638 10.7655L89.855 10.9533L90.0893 8.46892L88.0982 8.28108ZM89.0884 9.88596C88.4637 9.73897 87.7639 9.67188 87 9.67188V11.6719C87.6527 11.6719 88.1925 11.7298 88.6303 11.8328L89.0884 9.88596ZM94.1875 3.65625L93.4689 4.35167L93.4746 4.35756L93.4804 4.36336L94.1875 3.65625ZM93.8125 1.10938L92.8525 0.829375L92.8485 0.84311L92.8449 0.856953L93.8125 1.10938ZM94.125 0.53125L93.4179 -0.175857L94.125 0.53125ZM96.375 0.234375L96.1434 1.20723L96.1534 1.20951L96.375 0.234375ZM96.9375 0.53125L97.6446 -0.175857L96.9375 0.53125ZM97.2188 2.98438L96.2486 2.74184L96.2449 2.75684L96.2416 2.77195L97.2188 2.98438ZM96.9375 3.5625L97.6446 4.26961L97.6577 4.25652L97.6703 4.24295L96.9375 3.5625ZM94.2656 8.40625V7.40625H93.2639L93.2656 8.40793L94.2656 8.40625ZM96.8281 8.40625H97.8281V7.40625H96.8281V8.40625ZM96.8281 27V28H97.8281V27H96.8281ZM94.2969 27L93.2969 27.0017L93.2986 28H94.2969V27ZM95.5312 2.95312C95.2214 2.95312 95.0142 2.93043 94.8876 2.90245C94.7426 2.87042 94.7979 2.85247 94.8946 2.94914L93.4804 4.36336C93.775 4.65795 94.1532 4.78844 94.4561 4.85536C94.7774 4.92634 95.1431 4.95312 95.5312 4.95312V2.95312ZM94.9061 2.96083C94.8168 2.86852 94.7188 2.69972 94.7188 2.32812H92.7188C92.7188 3.08153 92.9332 3.79814 93.4689 4.35167L94.9061 2.96083ZM94.7188 2.32812C94.7188 1.75857 94.7529 1.46598 94.7801 1.3618L92.8449 0.856953C92.7471 1.23194 92.7188 1.75184 92.7188 2.32812H94.7188ZM94.7725 1.38938C94.8145 1.24523 94.8506 1.21983 94.8321 1.23836L93.4179 -0.175857C93.1285 0.113508 92.9563 0.473524 92.8525 0.829375L94.7725 1.38938ZM94.8321 1.23836C94.8325 1.23797 94.8489 1.22007 94.91 1.19998C94.9759 1.17829 95.0888 1.15625 95.2656 1.15625V-0.84375C94.608 -0.84375 93.925 -0.682985 93.4179 -0.175857L94.8321 1.23836ZM95.2656 1.15625C95.7833 1.15625 96.0492 1.18477 96.1434 1.20718L96.6066 -0.738431C96.2633 -0.820185 95.7896 -0.84375 95.2656 -0.84375V1.15625ZM96.1534 1.20951C96.1918 1.21823 96.2122 1.22755 96.2207 1.23204C96.2285 1.23611 96.2302 1.2382 96.2304 1.23836L97.6446 -0.175857C97.3476 -0.472875 96.9834 -0.652863 96.5966 -0.740758L96.1534 1.20951ZM96.2304 1.23836C96.2166 1.2246 96.237 1.23583 96.2619 1.31802C96.2881 1.40417 96.3125 1.5471 96.3125 1.76562H98.3125C98.3125 1.08499 98.17 0.349522 97.6446 -0.175857L96.2304 1.23836ZM96.3125 1.76562C96.3125 2.31916 96.2792 2.61966 96.2486 2.74184L98.1889 3.22691C98.2833 2.84909 98.3125 2.33709 98.3125 1.76562H96.3125ZM96.2416 2.77195C96.2188 2.87685 96.1928 2.89482 96.2047 2.88205L97.6703 4.24295C97.953 3.93851 98.1146 3.57106 98.1959 3.1968L96.2416 2.77195ZM96.2304 2.85539C96.2551 2.83068 96.2428 2.85866 96.123 2.89195C96.0023 2.92546 95.8118 2.95312 95.5312 2.95312V4.95312C96.2725 4.95312 97.091 4.82326 97.6446 4.26961L96.2304 2.85539ZM94.2656 9.40625H96.8281V7.40625H94.2656V9.40625ZM95.8281 8.40625V27H97.8281V8.40625H95.8281ZM96.8281 26H94.2969V28H96.8281V26ZM95.2969 26.9983L95.2656 8.40457L93.2656 8.40793L93.2969 27.0017L95.2969 26.9983ZM118.922 26.0156L119.294 26.9438L120.176 26.5902L119.868 25.6915L118.922 26.0156ZM107.938 26.8438L108.222 25.8851L108.212 25.8822L107.938 26.8438ZM104.594 23.875L103.654 24.2162L103.655 24.2204L104.594 23.875ZM105.891 9.875L105.199 9.15287L105.194 9.1571L105.891 9.875ZM117.875 10.1875L118.679 9.59346L118.679 9.59328L117.875 10.1875ZM118.859 12.6562L117.872 12.8155L117.874 12.8276L118.859 12.6562ZM119.016 18.5781L119.058 19.5772L119.939 19.5397L120.012 18.6612L119.016 18.5781ZM106.484 18.3281L106.644 17.341L105.484 17.1534V18.3281H106.484ZM107.391 23.3438L106.547 23.8812L106.548 23.8826L107.391 23.3438ZM118.156 23.7812L119.102 23.4571L118.753 22.4382L117.763 22.8619L118.156 23.7812ZM116.469 16.5V17.5H117.469V16.5H116.469ZM115.516 11.5L114.775 12.1717L114.776 12.1732L115.516 11.5ZM107.578 11.6875L108.343 12.3322L108.344 12.3303L107.578 11.6875ZM106.484 16.5H105.484V17.5H106.484V16.5ZM118.55 25.0875C116.525 25.8992 114.273 26.3125 111.781 26.3125V28.3125C114.498 28.3125 117.006 27.8612 119.294 26.9438L118.55 25.0875ZM111.781 26.3125C110.334 26.3125 109.155 26.1621 108.222 25.8851L107.653 27.8024C108.825 28.1504 110.208 28.3125 111.781 28.3125V26.3125ZM108.212 25.8822C106.809 25.4814 105.963 24.6997 105.532 23.5296L103.655 24.2204C104.329 26.0503 105.711 27.2477 107.663 27.8053L108.212 25.8822ZM105.534 23.5338C105.084 22.2935 104.828 20.3502 104.828 17.625H102.828C102.828 20.4207 103.083 22.644 103.654 24.2162L105.534 23.5338ZM104.828 17.625V16.8281H102.828V17.625H104.828ZM104.828 16.8281C104.828 13.6133 105.507 11.6401 106.587 10.5929L105.194 9.1571C103.524 10.7765 102.828 13.4388 102.828 16.8281H104.828ZM106.582 10.5971C107.543 9.67655 109.29 9.09375 112.094 9.09375V7.09375C109.106 7.09375 106.717 7.69845 105.199 9.15289L106.582 10.5971ZM112.094 9.09375C114.799 9.09375 116.321 9.76756 117.071 10.7817L118.679 9.59328C117.366 7.81577 115.034 7.09375 112.094 7.09375V9.09375ZM117.071 10.7815C117.461 11.3106 117.737 11.978 117.872 12.8155L119.847 12.497C119.669 11.397 119.289 10.4185 118.679 9.59346L117.071 10.7815ZM117.874 12.8276C118.032 13.7355 118.109 14.5946 118.109 15.4062H120.109C120.109 14.4679 120.02 13.4936 119.845 12.4849L117.874 12.8276ZM118.109 15.4062C118.109 16.7615 118.078 17.7864 118.019 18.4951L120.012 18.6612C120.078 17.8699 120.109 16.7802 120.109 15.4062H118.109ZM118.973 17.579C117.515 17.6411 116.212 17.6719 115.062 17.6719V19.6719C116.246 19.6719 117.579 19.6402 119.058 19.5772L118.973 17.579ZM115.062 18.6719C115.062 17.6719 115.062 17.6719 115.062 17.6719C115.062 17.6719 115.062 17.6719 115.062 17.6719C115.062 17.6719 115.062 17.6719 115.062 17.6719C115.062 17.6719 115.062 17.6719 115.062 17.6719C115.062 17.6719 115.062 17.6719 115.062 17.6719C115.062 17.6719 115.062 17.6719 115.062 17.6719C115.062 17.6719 115.062 17.6719 115.062 17.6719C115.062 17.6719 115.062 17.6719 115.062 17.6719C115.062 17.6719 115.062 17.6719 115.062 17.6719C115.062 17.6719 115.062 17.6719 115.062 17.6719C115.061 17.6719 115.061 17.6719 115.061 17.6719C115.061 17.6719 115.061 17.6719 115.061 17.6719C115.061 17.6719 115.061 17.6719 115.061 17.6719C115.061 17.6719 115.061 17.6719 115.061 17.6719C115.061 17.6719 115.06 17.6719 115.06 17.6719C115.06 17.6719 115.06 17.6719 115.06 17.6719C115.06 17.6719 115.06 17.6719 115.06 17.6719C115.06 17.6719 115.06 17.6719 115.059 17.6719C115.059 17.6719 115.059 17.6719 115.059 17.6719C115.059 17.6719 115.059 17.6719 115.059 17.6719C115.059 17.6719 115.058 17.6719 115.058 17.6719C115.058 17.6719 115.058 17.6719 115.058 17.6719C115.058 17.6719 115.058 17.6719 115.057 17.6719C115.057 17.6719 115.057 17.6719 115.057 17.6719C115.057 17.6719 115.057 17.6719 115.057 17.6719C115.056 17.6719 115.056 17.6719 115.056 17.6719C115.056 17.6719 115.056 17.6719 115.056 17.6719C115.055 17.6719 115.055 17.6719 115.055 17.6719C115.055 17.6719 115.055 17.6719 115.054 17.6719C115.054 17.6719 115.054 17.6719 115.054 17.6719C115.054 17.6719 115.053 17.6719 115.053 17.6719C115.053 17.6719 115.053 17.6719 115.053 17.6719C115.052 17.6719 115.052 17.6719 115.052 17.6719C115.052 17.6719 115.052 17.6719 115.051 17.6719C115.051 17.6719 115.051 17.6719 115.051 17.6719C115.051 17.6719 115.05 17.6719 115.05 17.6719C115.05 17.6719 115.05 17.6719 115.049 17.6719C115.049 17.6719 115.049 17.6719 115.049 17.6719C115.048 17.6719 115.048 17.6719 115.048 17.6719C115.048 17.6719 115.047 17.6719 115.047 17.6719C115.047 17.6719 115.047 17.6719 115.046 17.6719C115.046 17.6719 115.046 17.6719 115.046 17.6719C115.045 17.6719 115.045 17.6719 115.045 17.6719C115.044 17.6719 115.044 17.6719 115.044 17.6719C115.044 17.6719 115.043 17.6719 115.043 17.6719C115.043 17.6719 115.042 17.6719 115.042 17.6719C115.042 17.6719 115.042 17.6719 115.041 17.6719C115.041 17.6719 115.041 17.6719 115.04 17.6719C115.04 17.6719 115.04 17.6719 115.039 17.6719C115.039 17.6719 115.039 17.6719 115.039 17.6719C115.038 17.6719 115.038 17.6719 115.038 17.6719C115.037 17.6719 115.037 17.6719 115.037 17.6719C115.036 17.6719 115.036 17.6719 115.036 17.6719C115.035 17.6719 115.035 17.6719 115.035 17.6719C115.034 17.6719 115.034 17.6719 115.033 17.6719C115.033 17.6719 115.033 17.6719 115.032 17.6719C115.032 17.6719 115.032 17.6719 115.031 17.6719C115.031 17.6719 115.031 17.6719 115.03 17.6719C115.03 17.6719 115.029 17.6719 115.029 17.6719C115.029 17.6719 115.028 17.6719 115.028 17.6719C115.028 17.6719 115.027 17.6719 115.027 17.6719C115.026 17.6719 115.026 17.6719 115.026 17.6719C115.025 17.6719 115.025 17.6719 115.024 17.6719C115.024 17.6719 115.024 17.6719 115.023 17.6719C115.023 17.6719 115.022 17.6719 115.022 17.6719C115.022 17.6719 115.021 17.6719 115.021 17.6719C115.02 17.6719 115.02 17.6719 115.019 17.6719C115.019 17.6719 115.019 17.6719 115.018 17.6719C115.018 17.6719 115.017 17.6719 115.017 17.6719C115.016 17.6719 115.016 17.6719 115.015 17.6719C115.015 17.6719 115.015 17.6719 115.014 17.6719C115.014 17.6719 115.013 17.6719 115.013 17.6719C115.012 17.6719 115.012 17.6719 115.011 17.6719C115.011 17.6719 115.01 17.6719 115.01 17.6719C115.009 17.6719 115.009 17.6719 115.009 17.6719C115.008 17.6719 115.008 17.6719 115.007 17.6719C115.007 17.6719 115.006 17.6719 115.006 17.6719C115.005 17.6719 115.005 17.6719 115.004 17.6719C115.004 17.6719 115.003 17.6719 115.003 17.6719C115.002 17.6719 115.002 17.6719 115.001 17.6719C115.001 17.6719 115 17.6719 115 17.6719C114.999 17.6719 114.998 17.6719 114.998 17.6719C114.997 17.6719 114.997 17.6719 114.996 17.6719C114.996 17.6719 114.995 17.6719 114.995 17.6719C114.994 17.6719 114.994 17.6719 114.993 17.6719C114.993 17.6719 114.992 17.6719 114.992 17.6719C114.991 17.6719 114.99 17.6719 114.99 17.6719C114.989 17.6719 114.989 17.6719 114.988 17.6719C114.988 17.6719 114.987 17.6719 114.986 17.6719C114.986 17.6719 114.985 17.6719 114.985 17.6719C114.984 17.6719 114.984 17.6719 114.983 17.6719C114.982 17.6719 114.982 17.6719 114.981 17.6719C114.981 17.6719 114.98 17.6719 114.98 17.6719C114.979 17.6719 114.978 17.6719 114.978 17.6719C114.977 17.6719 114.977 17.6719 114.976 17.6719C114.975 17.6719 114.975 17.6719 114.974 17.6719C114.973 17.6719 114.973 17.6719 114.972 17.6719C114.972 17.6719 114.971 17.6719 114.97 17.6719C114.97 17.6719 114.969 17.6719 114.968 17.6719C114.968 17.6719 114.967 17.6719 114.967 17.6719C114.966 17.6719 114.965 17.6719 114.965 17.6719C114.964 17.6719 114.963 17.6719 114.963 17.6719C114.962 17.6719 114.961 17.6719 114.961 17.6719C114.96 17.6719 114.959 17.6719 114.959 17.6719C114.958 17.6719 114.957 17.6719 114.957 17.6719C114.956 17.6719 114.955 17.6719 114.955 17.6719C114.954 17.6719 114.953 17.6719 114.953 17.6719C114.952 17.6719 114.951 17.6719 114.951 17.6719C114.95 17.6719 114.949 17.6719 114.948 17.6719C114.948 17.6719 114.947 17.6719 114.946 17.6719C114.946 17.6719 114.945 17.6719 114.944 17.6719C114.944 17.6719 114.943 17.6719 114.942 17.6719C114.941 17.6719 114.941 17.6719 114.94 17.6719C114.939 17.6719 114.939 17.6719 114.938 17.6719C114.937 17.6719 114.936 17.6719 114.936 17.6719C114.935 17.6719 114.934 17.6719 114.933 17.6719C114.933 17.6719 114.932 17.6719 114.931 17.6719C114.93 17.6719 114.93 17.6719 114.929 17.6719C114.928 17.6719 114.927 17.6719 114.927 17.6719C114.926 17.6719 114.925 17.6719 114.924 17.6719C114.924 17.6719 114.923 17.6719 114.922 17.6719C114.921 17.6719 114.92 17.6719 114.92 17.6719C114.919 17.6719 114.918 17.6719 114.917 17.6719C114.917 17.6719 114.916 17.6719 114.915 17.6719C114.914 17.6719 114.913 17.6719 114.913 17.6719C114.912 17.6719 114.911 17.6719 114.91 17.6719C114.909 17.6719 114.909 17.6719 114.908 17.6719C114.907 17.6719 114.906 17.6719 114.905 17.6719C114.904 17.6719 114.904 17.6719 114.903 17.6719C114.902 17.6719 114.901 17.6719 114.9 17.6719C114.899 17.6719 114.899 17.6719 114.898 17.6719C114.897 17.6719 114.896 17.6719 114.895 17.6719C114.894 17.6719 114.894 17.6719 114.893 17.6719C114.892 17.6719 114.891 17.6719 114.89 17.6719C114.889 17.6719 114.888 17.6719 114.888 17.6719C114.887 17.6719 114.886 17.6719 114.885 17.6719C114.884 17.6719 114.883 17.6719 114.882 17.6719C114.882 17.6719 114.881 17.6719 114.88 17.6719C114.879 17.6719 114.878 17.6719 114.877 17.6719C114.876 17.6719 114.875 17.6719 114.874 17.6719C114.874 17.6719 114.873 17.6719 114.872 17.6719C114.871 17.6719 114.87 17.6719 114.869 17.6719C114.868 17.6719 114.867 17.6719 114.866 17.6719C114.865 17.6719 114.864 17.6719 114.864 17.6719C114.863 17.6719 114.862 17.6719 114.861 17.6719C114.86 17.6719 114.859 17.6719 114.858 17.6719C114.857 17.6719 114.856 17.6719 114.855 17.6719C114.854 17.6719 114.853 17.6719 114.852 17.6719C114.851 17.6719 114.85 17.6719 114.849 17.6719C114.848 17.6719 114.848 17.6719 114.847 17.6719C114.846 17.6719 114.845 17.6719 114.844 17.6719C114.843 17.6719 114.842 17.6719 114.841 17.6719C114.84 17.6719 114.839 17.6719 114.838 17.6719C114.837 17.6719 114.836 17.6719 114.835 17.6719C114.834 17.6719 114.833 17.6719 114.832 17.6719C114.831 17.6719 114.83 17.6719 114.829 17.6719C114.828 17.6719 114.827 17.6719 114.826 17.6719C114.825 17.6719 114.824 17.6719 114.823 17.6719C114.822 17.6719 114.821 17.6719 114.82 17.6719C114.819 17.6719 114.818 17.6719 114.817 17.6719C114.816 17.6719 114.815 17.6719 114.814 17.6719C114.813 17.6719 114.812 17.6719 114.811 17.6719C114.81 17.6719 114.809 17.6719 114.808 17.6719C114.806 17.6719 114.805 17.6719 114.804 17.6719C114.803 17.6719 114.802 17.6719 114.801 17.6719C114.8 17.6719 114.799 17.6719 114.798 17.6719C114.797 17.6719 114.796 17.6719 114.795 17.6719C114.794 17.6719 114.793 17.6719 114.792 17.6719C114.791 17.6719 114.789 17.6719 114.788 17.6719C114.787 17.6719 114.786 17.6719 114.785 17.6719C114.784 17.6719 114.783 17.6719 114.782 17.6719C114.781 17.6719 114.78 17.6719 114.779 17.6719C114.778 17.6719 114.776 17.6719 114.775 17.6719C114.774 17.6719 114.773 17.6719 114.772 17.6719C114.771 17.6719 114.77 17.6719 114.769 17.6719C114.767 17.6719 114.766 17.6719 114.765 17.6719C114.764 17.6719 114.763 17.6719 114.762 17.6719C114.761 17.6719 114.76 17.6719 114.758 17.6719C114.757 17.6719 114.756 17.6719 114.755 17.6719C114.754 17.6719 114.753 17.6719 114.752 17.6719C114.75 17.6719 114.749 17.6719 114.748 17.6719C114.747 17.6719 114.746 17.6719 114.745 17.6719C114.743 17.6719 114.742 17.6719 114.741 17.6719C114.74 17.6719 114.739 17.6719 114.738 17.6719C114.736 17.6719 114.735 17.6719 114.734 17.6719C114.733 17.6719 114.732 17.6719 114.731 17.6719C114.729 17.6719 114.728 17.6719 114.727 17.6719C114.726 17.6719 114.725 17.6719 114.723 17.6719C114.722 17.6719 114.721 17.6719 114.72 17.6719C114.718 17.6719 114.717 17.6719 114.716 17.6719C114.715 17.6719 114.714 17.6719 114.712 17.6719C114.711 17.6719 114.71 17.6719 114.709 17.6719C114.708 17.6719 114.706 17.6719 114.705 17.6719C114.704 17.6719 114.703 17.6719 114.701 17.6719C114.7 17.6719 114.699 17.6719 114.698 17.6719C114.696 17.6719 114.695 17.6719 114.694 17.6719C114.693 17.6719 114.691 17.6719 114.69 17.6719C114.689 17.6719 114.688 17.6719 114.686 17.6719C114.685 17.6719 114.684 17.6719 114.682 17.6719C114.681 17.6719 114.68 17.6719 114.679 17.6719C114.677 17.6719 114.676 17.6719 114.675 17.6719C114.674 17.6719 114.672 17.6719 114.671 17.6719C114.67 17.6719 114.668 17.6719 114.667 17.6719C114.666 17.6719 114.664 17.6719 114.663 17.6719C114.662 17.6719 114.661 17.6719 114.659 17.6719C114.658 17.6719 114.657 17.6719 114.655 17.6719C114.654 17.6719 114.653 17.6719 114.651 17.6719C114.65 17.6719 114.649 17.6719 114.647 17.6719C114.646 17.6719 114.645 17.6719 114.643 17.6719C114.642 17.6719 114.641 17.6719 114.639 17.6719C114.638 17.6719 114.637 17.6719 114.635 17.6719C114.634 17.6719 114.633 17.6719 114.631 17.6719C114.63 17.6719 114.628 17.6719 114.627 17.6719C114.626 17.6719 114.624 17.6719 114.623 17.6719C114.622 17.6719 114.62 17.6719 114.619 17.6719C114.618 17.6719 114.616 17.6719 114.615 17.6719C114.613 17.6719 114.612 17.6719 114.611 17.6719C114.609 17.6719 114.608 17.6719 114.606 17.6719C114.605 17.6719 114.604 17.6719 114.602 17.6719C114.601 17.6719 114.599 17.6719 114.598 17.6719C114.597 17.6719 114.595 17.6719 114.594 17.6719C114.592 17.6719 114.591 17.6719 114.59 17.6719C114.588 17.6719 114.587 17.6719 114.585 17.6719C114.584 17.6719 114.582 17.6719 114.581 17.6719C114.58 17.6719 114.578 17.6719 114.577 17.6719C114.575 17.6719 114.574 17.6719 114.572 17.6719C114.571 17.6719 114.569 17.6719 114.568 17.6719C114.567 17.6719 114.565 17.6719 114.564 17.6719C114.562 17.6719 114.561 17.6719 114.559 17.6719C114.558 17.6719 114.556 17.6719 114.555 17.6719C114.553 17.6719 114.552 17.6719 114.55 17.6719C114.549 17.6719 114.547 17.6719 114.546 17.6719C114.545 17.6719 114.543 17.6719 114.542 17.6719C114.54 17.6719 114.539 17.6719 114.537 17.6719C114.536 17.6719 114.534 17.6719 114.533 17.6719C114.531 17.6719 114.53 17.6719 114.528 17.6719C114.527 17.6719 114.525 17.6719 114.523 17.6719C114.522 17.6719 114.52 17.6719 114.519 17.6719C114.517 17.6719 114.516 17.6719 114.514 17.6719C114.513 17.6719 114.511 17.6719 114.51 17.6719C114.508 17.6719 114.507 17.6719 114.505 17.6719C114.504 17.6719 114.502 17.6719 114.5 17.6719C114.499 17.6719 114.497 17.6719 114.496 17.6719C114.494 17.6719 114.493 17.6719 114.491 17.6719C114.49 17.6719 114.488 17.6719 114.486 17.6719C114.485 17.6719 114.483 17.6719 114.482 17.6719C114.48 17.6719 114.479 17.6719 114.477 17.6719C114.475 17.6719 114.474 17.6719 114.472 17.6719C114.471 17.6719 114.469 17.6719 114.468 17.6719C114.466 17.6719 114.464 17.6719 114.463 17.6719C114.461 17.6719 114.46 17.6719 114.458 17.6719C114.456 17.6719 114.455 17.6719 114.453 17.6719C114.451 17.6719 114.45 17.6719 114.448 17.6719C114.447 17.6719 114.445 17.6719 114.443 17.6719C114.442 17.6719 114.44 17.6719 114.438 17.6719C114.437 17.6719 114.435 17.6719 114.434 17.6719C114.432 17.6719 114.43 17.6719 114.429 17.6719C114.427 17.6719 114.425 17.6719 114.424 17.6719C114.422 17.6719 114.42 17.6719 114.419 17.6719C114.417 17.6719 114.415 17.6719 114.414 17.6719C114.412 17.6719 114.41 17.6719 114.409 17.6719C114.407 17.6719 114.405 17.6719 114.404 17.6719C114.402 17.6719 114.4 17.6719 114.399 17.6719C114.397 17.6719 114.395 17.6719 114.394 17.6719C114.392 17.6719 114.39 17.6719 114.389 17.6719C114.387 17.6719 114.385 17.6719 114.384 17.6719C114.382 17.6719 114.38 17.6719 114.378 17.6719C114.377 17.6719 114.375 17.6719 114.373 17.6719C114.372 17.6719 114.37 17.6719 114.368 17.6719C114.366 17.6719 114.365 17.6719 114.363 17.6719C114.361 17.6719 114.359 17.6719 114.358 17.6719C114.356 17.6719 114.354 17.6719 114.353 17.6719C114.351 17.6719 114.349 17.6719 114.347 17.6719C114.346 17.6719 114.344 17.6719 114.342 17.6719C114.34 17.6719 114.339 17.6719 114.337 17.6719C114.335 17.6719 114.333 17.6719 114.331 17.6719C114.33 17.6719 114.328 17.6719 114.326 17.6719C114.324 17.6719 114.323 17.6719 114.321 17.6719C114.319 17.6719 114.317 17.6719 114.316 17.6719C114.314 17.6719 114.312 17.6719 114.31 17.6719C114.308 17.6719 114.307 17.6719 114.305 17.6719C114.303 17.6719 114.301 17.6719 114.299 17.6719C114.298 17.6719 114.296 17.6719 114.294 17.6719C114.292 17.6719 114.29 17.6719 114.288 17.6719C114.287 17.6719 114.285 17.6719 114.283 17.6719C114.281 17.6719 114.279 17.6719 114.278 17.6719C114.276 17.6719 114.274 17.6719 114.272 17.6719C114.27 17.6719 114.268 17.6719 114.267 17.6719C114.265 17.6719 114.263 17.6719 114.261 17.6719C114.259 17.6719 114.257 17.6719 114.255 17.6719C114.254 17.6719 114.252 17.6719 114.25 17.6719C114.248 17.6719 114.246 17.6719 114.244 17.6719C114.242 17.6719 114.241 17.6719 114.239 17.6719C114.237 17.6719 114.235 17.6719 114.233 17.6719C114.231 17.6719 114.229 17.6719 114.227 17.6719C114.225 17.6719 114.224 17.6719 114.222 17.6719C114.22 17.6719 114.218 17.6719 114.216 17.6719C114.214 17.6719 114.212 17.6719 114.21 17.6719C114.208 17.6719 114.206 17.6719 114.205 17.6719C114.203 17.6719 114.201 17.6719 114.199 17.6719C114.197 17.6719 114.195 17.6719 114.193 17.6719C114.191 17.6719 114.189 17.6719 114.187 17.6719C114.185 17.6719 114.183 17.6719 114.181 17.6719C114.18 17.6719 114.178 17.6719 114.176 17.6719C114.174 17.6719 114.172 17.6719 114.17 17.6719C114.168 17.6719 114.166 17.6719 114.164 17.6719C114.162 17.6719 114.16 17.6719 114.158 17.6719C114.156 17.6719 114.154 17.6719 114.152 17.6719C114.15 17.6719 114.148 17.6719 114.146 17.6719C114.144 17.6719 114.142 17.6719 114.14 17.6719C114.138 17.6719 114.136 17.6719 114.134 17.6719C114.132 17.6719 114.13 17.6719 114.128 17.6719C114.126 17.6719 114.124 17.6719 114.122 17.6719C114.12 17.6719 114.118 17.6719 114.116 17.6719C114.114 17.6719 114.112 17.6719 114.11 17.6719C114.108 17.6719 114.106 17.6719 114.104 17.6719C114.102 17.6719 114.1 17.6719 114.098 17.6719C114.096 17.6719 114.094 17.6719 114.092 17.6719C114.09 17.6719 114.088 17.6719 114.086 17.6719C114.084 17.6719 114.082 17.6719 114.08 17.6719C114.078 17.6719 114.076 17.6719 114.074 17.6719C114.072 17.6719 114.07 17.6719 114.068 17.6719C114.065 17.6719 114.063 17.6719 114.061 17.6719C114.059 17.6719 114.057 17.6719 114.055 17.6719C114.053 17.6719 114.051 17.6719 114.049 17.6719C114.047 17.6719 114.045 17.6719 114.043 17.6719C114.041 17.6719 114.038 17.6719 114.036 17.6719C114.034 17.6719 114.032 17.6719 114.03 17.6719C114.028 17.6719 114.026 17.6719 114.024 17.6719C114.022 17.6719 114.02 17.6719 114.017 17.6719C114.015 17.6719 114.013 17.6719 114.011 17.6719C114.009 17.6719 114.007 17.6719 114.005 17.6719C114.003 17.6719 114.001 17.6719 113.998 17.6719C113.996 17.6719 113.994 17.6719 113.992 17.6719C113.99 17.6719 113.988 17.6719 113.986 17.6719C113.983 17.6719 113.981 17.6719 113.979 17.6719C113.977 17.6719 113.975 17.6719 113.973 17.6719C113.97 17.6719 113.968 17.6719 113.966 17.6719C113.964 17.6719 113.962 17.6719 113.96 17.6719C113.958 17.6719 113.955 17.6719 113.953 17.6719C113.951 17.6719 113.949 17.6719 113.947 17.6719C113.944 17.6719 113.942 17.6719 113.94 17.6719C113.938 17.6719 113.936 17.6719 113.933 17.6719C113.931 17.6719 113.929 17.6719 113.927 17.6719C113.925 17.6719 113.923 17.6719 113.92 17.6719C113.918 17.6719 113.916 17.6719 113.914 17.6719C113.911 17.6719 113.909 17.6719 113.907 17.6719C113.905 17.6719 113.903 17.6719 113.9 17.6719C113.898 17.6719 113.896 17.6719 113.894 17.6719C113.891 17.6719 113.889 17.6719 113.887 17.6719C113.885 17.6719 113.882 17.6719 113.88 17.6719C113.878 17.6719 113.876 17.6719 113.873 17.6719C113.871 17.6719 113.869 17.6719 113.867 17.6719C113.864 17.6719 113.862 17.6719 113.86 17.6719C113.858 17.6719 113.855 17.6719 113.853 17.6719C113.851 17.6719 113.849 17.6719 113.846 17.6719C113.844 17.6719 113.842 17.6719 113.839 17.6719C113.837 17.6719 113.835 17.6719 113.833 17.6719C113.83 17.6719 113.828 17.6719 113.826 17.6719C113.823 17.6719 113.821 17.6719 113.819 17.6719C113.817 17.6719 113.814 17.6719 113.812 17.6719C113.81 17.6719 113.807 17.6719 113.805 17.6719C113.803 17.6719 113.8 17.6719 113.798 17.6719C113.796 17.6719 113.793 17.6719 113.791 17.6719C113.789 17.6719 113.786 17.6719 113.784 17.6719C113.782 17.6719 113.779 17.6719 113.777 17.6719C113.775 17.6719 113.772 17.6719 113.77 17.6719C113.768 17.6719 113.765 17.6719 113.763 17.6719C113.761 17.6719 113.758 17.6719 113.756 17.6719C113.753 17.6719 113.751 17.6719 113.749 17.6719C113.746 17.6719 113.744 17.6719 113.742 17.6719C113.739 17.6719 113.737 17.6719 113.735 17.6719C113.732 17.6719 113.73 17.6719 113.727 17.6719C113.725 17.6719 113.723 17.6719 113.72 17.6719C113.718 17.6719 113.715 17.6719 113.713 17.6719C113.711 17.6719 113.708 17.6719 113.706 17.6719C113.703 17.6719 113.701 17.6719 113.699 17.6719C113.696 17.6719 113.694 17.6719 113.691 17.6719C113.689 17.6719 113.686 17.6719 113.684 17.6719C113.682 17.6719 113.679 17.6719 113.677 17.6719C113.674 17.6719 113.672 17.6719 113.669 17.6719C113.667 17.6719 113.665 17.6719 113.662 17.6719C113.66 17.6719 113.657 17.6719 113.655 17.6719C113.652 17.6719 113.65 17.6719 113.647 17.6719C113.645 17.6719 113.643 17.6719 113.64 17.6719C113.638 17.6719 113.635 17.6719 113.633 17.6719C113.63 17.6719 113.628 17.6719 113.625 17.6719C113.623 17.6719 113.62 17.6719 113.618 17.6719C113.615 17.6719 113.613 17.6719 113.61 17.6719C113.608 17.6719 113.605 17.6719 113.603 17.6719C113.6 17.6719 113.598 17.6719 113.595 17.6719C113.593 17.6719 113.59 17.6719 113.588 17.6719C113.585 17.6719 113.583 17.6719 113.58 17.6719C113.578 17.6719 113.575 17.6719 113.573 17.6719C113.57 17.6719 113.568 17.6719 113.565 17.6719C113.563 17.6719 113.56 17.6719 113.558 17.6719C113.555 17.6719 113.553 17.6719 113.55 17.6719C113.547 17.6719 113.545 17.6719 113.542 17.6719C113.54 17.6719 113.537 17.6719 113.535 17.6719C113.532 17.6719 113.53 17.6719 113.527 17.6719C113.525 17.6719 113.522 17.6719 113.519 17.6719C113.517 17.6719 113.514 17.6719 113.512 17.6719C113.509 17.6719 113.507 17.6719 113.504 17.6719C113.501 17.6719 113.499 17.6719 113.496 17.6719C113.494 17.6719 113.491 17.6719 113.488 17.6719C113.486 17.6719 113.483 17.6719 113.481 17.6719C113.478 17.6719 113.475 17.6719 113.473 17.6719C113.47 17.6719 113.468 17.6719 113.465 17.6719C113.462 17.6719 113.46 17.6719 113.457 17.6719C113.455 17.6719 113.452 17.6719 113.449 17.6719C113.447 17.6719 113.444 17.6719 113.441 17.6719C113.439 17.6719 113.436 17.6719 113.434 17.6719C113.431 17.6719 113.428 17.6719 113.426 17.6719C113.423 17.6719 113.42 17.6719 113.418 17.6719C113.415 17.6719 113.412 17.6719 113.41 17.6719C113.407 17.6719 113.404 17.6719 113.402 17.6719C113.399 17.6719 113.396 17.6719 113.394 17.6719C113.391 17.6719 113.388 17.6719 113.386 17.6719C113.383 17.6719 113.38 17.6719 113.378 17.6719C113.375 17.6719 113.372 17.6719 113.37 17.6719C113.367 17.6719 113.364 17.6719 113.362 17.6719C113.359 17.6719 113.356 17.6719 113.354 17.6719C113.351 17.6719 113.348 17.6719 113.345 17.6719C113.343 17.6719 113.34 17.6719 113.337 17.6719C113.335 17.6719 113.332 17.6719 113.329 17.6719C113.326 17.6719 113.324 17.6719 113.321 17.6719C113.318 17.6719 113.316 17.6719 113.313 17.6719C113.31 17.6719 113.307 17.6719 113.305 17.6719C113.302 17.6719 113.299 17.6719 113.296 17.6719C113.294 17.6719 113.291 17.6719 113.288 17.6719C113.285 17.6719 113.283 17.6719 113.28 17.6719C113.277 17.6719 113.274 17.6719 113.272 17.6719C113.269 17.6719 113.266 17.6719 113.263 17.6719C113.261 17.6719 113.258 17.6719 113.255 17.6719C113.252 17.6719 113.249 17.6719 113.247 17.6719C113.244 17.6719 113.241 17.6719 113.238 17.6719C113.235 17.6719 113.233 17.6719 113.23 17.6719C113.227 17.6719 113.224 17.6719 113.221 17.6719C113.219 17.6719 113.216 17.6719 113.213 17.6719C113.21 17.6719 113.207 17.6719 113.205 17.6719C113.202 17.6719 113.199 17.6719 113.196 17.6719C113.193 17.6719 113.191 17.6719 113.188 17.6719C113.185 17.6719 113.182 17.6719 113.179 17.6719C113.176 17.6719 113.174 17.6719 113.171 17.6719C113.168 17.6719 113.165 17.6719 113.162 17.6719C113.159 17.6719 113.156 17.6719 113.154 17.6719C113.151 17.6719 113.148 17.6719 113.145 17.6719C113.142 17.6719 113.139 17.6719 113.136 17.6719C113.134 17.6719 113.131 17.6719 113.128 17.6719C113.125 17.6719 113.122 17.6719 113.119 17.6719C113.116 17.6719 113.113 17.6719 113.111 17.6719C113.108 17.6719 113.105 17.6719 113.102 17.6719C113.099 17.6719 113.096 17.6719 113.093 17.6719C113.09 17.6719 113.087 17.6719 113.085 17.6719C113.082 17.6719 113.079 17.6719 113.076 17.6719C113.073 17.6719 113.07 17.6719 113.067 17.6719C113.064 17.6719 113.061 17.6719 113.058 17.6719C113.055 17.6719 113.052 17.6719 113.05 17.6719C113.047 17.6719 113.044 17.6719 113.041 17.6719C113.038 17.6719 113.035 17.6719 113.032 17.6719C113.029 17.6719 113.026 17.6719 113.023 17.6719C113.02 17.6719 113.017 17.6719 113.014 17.6719C113.011 17.6719 113.008 17.6719 113.005 17.6719C113.002 17.6719 112.999 17.6719 112.996 17.6719C112.993 17.6719 112.991 17.6719 112.988 17.6719C112.985 17.6719 112.982 17.6719 112.979 17.6719C112.976 17.6719 112.973 17.6719 112.97 17.6719C112.967 17.6719 112.964 17.6719 112.961 17.6719C112.958 17.6719 112.955 17.6719 112.952 17.6719C112.949 17.6719 112.946 17.6719 112.943 17.6719C112.94 17.6719 112.937 17.6719 112.934 17.6719C112.931 17.6719 112.928 17.6719 112.925 17.6719C112.922 17.6719 112.919 17.6719 112.916 17.6719C112.912 17.6719 112.909 17.6719 112.906 17.6719C112.903 17.6719 112.9 17.6719 112.897 17.6719C112.894 17.6719 112.891 17.6719 112.888 17.6719C112.885 17.6719 112.882 17.6719 112.879 17.6719C112.876 17.6719 112.873 17.6719 112.87 17.6719C112.867 17.6719 112.864 17.6719 112.861 17.6719C112.858 17.6719 112.855 17.6719 112.852 17.6719C112.848 17.6719 112.845 17.6719 112.842 17.6719C112.839 17.6719 112.836 17.6719 112.833 17.6719C112.83 17.6719 112.827 17.6719 112.824 17.6719C112.821 17.6719 112.818 17.6719 112.814 17.6719C112.811 17.6719 112.808 17.6719 112.805 17.6719C112.802 17.6719 112.799 17.6719 112.796 17.6719C112.793 17.6719 112.79 17.6719 112.787 17.6719C112.783 17.6719 112.78 17.6719 112.777 17.6719C112.774 17.6719 112.771 17.6719 112.768 17.6719C112.765 17.6719 112.762 17.6719 112.758 17.6719C112.755 17.6719 112.752 17.6719 112.749 17.6719C112.746 17.6719 112.743 17.6719 112.74 17.6719C112.736 17.6719 112.733 17.6719 112.73 17.6719C112.727 17.6719 112.724 17.6719 112.721 17.6719C112.717 17.6719 112.714 17.6719 112.711 17.6719C112.708 17.6719 112.705 17.6719 112.702 17.6719C112.698 17.6719 112.695 17.6719 112.692 17.6719C112.689 17.6719 112.686 17.6719 112.683 17.6719C112.679 17.6719 112.676 17.6719 112.673 17.6719C112.67 17.6719 112.667 17.6719 112.663 17.6719C112.66 17.6719 112.657 17.6719 112.654 17.6719C112.651 17.6719 112.647 17.6719 112.644 17.6719C112.641 17.6719 112.638 17.6719 112.635 17.6719C112.631 17.6719 112.628 17.6719 112.625 17.6719C112.622 17.6719 112.618 17.6719 112.615 17.6719C112.612 17.6719 112.609 17.6719 112.605 17.6719C112.602 17.6719 112.599 17.6719 112.596 17.6719C112.593 17.6719 112.589 17.6719 112.586 17.6719C112.583 17.6719 112.58 17.6719 112.576 17.6719C112.573 17.6719 112.57 17.6719 112.566 17.6719C112.563 17.6719 112.56 17.6719 112.557 17.6719C112.553 17.6719 112.55 17.6719 112.547 17.6719V19.6719C112.55 19.6719 112.553 19.6719 112.557 19.6719C112.56 19.6719 112.563 19.6719 112.566 19.6719C112.57 19.6719 112.573 19.6719 112.576 19.6719C112.58 19.6719 112.583 19.6719 112.586 19.6719C112.589 19.6719 112.593 19.6719 112.596 19.6719C112.599 19.6719 112.602 19.6719 112.605 19.6719C112.609 19.6719 112.612 19.6719 112.615 19.6719C112.618 19.6719 112.622 19.6719 112.625 19.6719C112.628 19.6719 112.631 19.6719 112.635 19.6719C112.638 19.6719 112.641 19.6719 112.644 19.6719C112.647 19.6719 112.651 19.6719 112.654 19.6719C112.657 19.6719 112.66 19.6719 112.663 19.6719C112.667 19.6719 112.67 19.6719 112.673 19.6719C112.676 19.6719 112.679 19.6719 112.683 19.6719C112.686 19.6719 112.689 19.6719 112.692 19.6719C112.695 19.6719 112.698 19.6719 112.702 19.6719C112.705 19.6719 112.708 19.6719 112.711 19.6719C112.714 19.6719 112.717 19.6719 112.721 19.6719C112.724 19.6719 112.727 19.6719 112.73 19.6719C112.733 19.6719 112.736 19.6719 112.74 19.6719C112.743 19.6719 112.746 19.6719 112.749 19.6719C112.752 19.6719 112.755 19.6719 112.758 19.6719C112.762 19.6719 112.765 19.6719 112.768 19.6719C112.771 19.6719 112.774 19.6719 112.777 19.6719C112.78 19.6719 112.783 19.6719 112.787 19.6719C112.79 19.6719 112.793 19.6719 112.796 19.6719C112.799 19.6719 112.802 19.6719 112.805 19.6719C112.808 19.6719 112.811 19.6719 112.814 19.6719C112.818 19.6719 112.821 19.6719 112.824 19.6719C112.827 19.6719 112.83 19.6719 112.833 19.6719C112.836 19.6719 112.839 19.6719 112.842 19.6719C112.845 19.6719 112.848 19.6719 112.852 19.6719C112.855 19.6719 112.858 19.6719 112.861 19.6719C112.864 19.6719 112.867 19.6719 112.87 19.6719C112.873 19.6719 112.876 19.6719 112.879 19.6719C112.882 19.6719 112.885 19.6719 112.888 19.6719C112.891 19.6719 112.894 19.6719 112.897 19.6719C112.9 19.6719 112.903 19.6719 112.906 19.6719C112.909 19.6719 112.912 19.6719 112.916 19.6719C112.919 19.6719 112.922 19.6719 112.925 19.6719C112.928 19.6719 112.931 19.6719 112.934 19.6719C112.937 19.6719 112.94 19.6719 112.943 19.6719C112.946 19.6719 112.949 19.6719 112.952 19.6719C112.955 19.6719 112.958 19.6719 112.961 19.6719C112.964 19.6719 112.967 19.6719 112.97 19.6719C112.973 19.6719 112.976 19.6719 112.979 19.6719C112.982 19.6719 112.985 19.6719 112.988 19.6719C112.991 19.6719 112.993 19.6719 112.996 19.6719C112.999 19.6719 113.002 19.6719 113.005 19.6719C113.008 19.6719 113.011 19.6719 113.014 19.6719C113.017 19.6719 113.02 19.6719 113.023 19.6719C113.026 19.6719 113.029 19.6719 113.032 19.6719C113.035 19.6719 113.038 19.6719 113.041 19.6719C113.044 19.6719 113.047 19.6719 113.05 19.6719C113.052 19.6719 113.055 19.6719 113.058 19.6719C113.061 19.6719 113.064 19.6719 113.067 19.6719C113.07 19.6719 113.073 19.6719 113.076 19.6719C113.079 19.6719 113.082 19.6719 113.085 19.6719C113.087 19.6719 113.09 19.6719 113.093 19.6719C113.096 19.6719 113.099 19.6719 113.102 19.6719C113.105 19.6719 113.108 19.6719 113.111 19.6719C113.113 19.6719 113.116 19.6719 113.119 19.6719C113.122 19.6719 113.125 19.6719 113.128 19.6719C113.131 19.6719 113.134 19.6719 113.136 19.6719C113.139 19.6719 113.142 19.6719 113.145 19.6719C113.148 19.6719 113.151 19.6719 113.154 19.6719C113.156 19.6719 113.159 19.6719 113.162 19.6719C113.165 19.6719 113.168 19.6719 113.171 19.6719C113.174 19.6719 113.176 19.6719 113.179 19.6719C113.182 19.6719 113.185 19.6719 113.188 19.6719C113.191 19.6719 113.193 19.6719 113.196 19.6719C113.199 19.6719 113.202 19.6719 113.205 19.6719C113.207 19.6719 113.21 19.6719 113.213 19.6719C113.216 19.6719 113.219 19.6719 113.221 19.6719C113.224 19.6719 113.227 19.6719 113.23 19.6719C113.233 19.6719 113.235 19.6719 113.238 19.6719C113.241 19.6719 113.244 19.6719 113.247 19.6719C113.249 19.6719 113.252 19.6719 113.255 19.6719C113.258 19.6719 113.261 19.6719 113.263 19.6719C113.266 19.6719 113.269 19.6719 113.272 19.6719C113.274 19.6719 113.277 19.6719 113.28 19.6719C113.283 19.6719 113.285 19.6719 113.288 19.6719C113.291 19.6719 113.294 19.6719 113.296 19.6719C113.299 19.6719 113.302 19.6719 113.305 19.6719C113.307 19.6719 113.31 19.6719 113.313 19.6719C113.316 19.6719 113.318 19.6719 113.321 19.6719C113.324 19.6719 113.326 19.6719 113.329 19.6719C113.332 19.6719 113.335 19.6719 113.337 19.6719C113.34 19.6719 113.343 19.6719 113.345 19.6719C113.348 19.6719 113.351 19.6719 113.354 19.6719C113.356 19.6719 113.359 19.6719 113.362 19.6719C113.364 19.6719 113.367 19.6719 113.37 19.6719C113.372 19.6719 113.375 19.6719 113.378 19.6719C113.38 19.6719 113.383 19.6719 113.386 19.6719C113.388 19.6719 113.391 19.6719 113.394 19.6719C113.396 19.6719 113.399 19.6719 113.402 19.6719C113.404 19.6719 113.407 19.6719 113.41 19.6719C113.412 19.6719 113.415 19.6719 113.418 19.6719C113.42 19.6719 113.423 19.6719 113.426 19.6719C113.428 19.6719 113.431 19.6719 113.434 19.6719C113.436 19.6719 113.439 19.6719 113.441 19.6719C113.444 19.6719 113.447 19.6719 113.449 19.6719C113.452 19.6719 113.455 19.6719 113.457 19.6719C113.46 19.6719 113.462 19.6719 113.465 19.6719C113.468 19.6719 113.47 19.6719 113.473 19.6719C113.475 19.6719 113.478 19.6719 113.481 19.6719C113.483 19.6719 113.486 19.6719 113.488 19.6719C113.491 19.6719 113.494 19.6719 113.496 19.6719C113.499 19.6719 113.501 19.6719 113.504 19.6719C113.507 19.6719 113.509 19.6719 113.512 19.6719C113.514 19.6719 113.517 19.6719 113.519 19.6719C113.522 19.6719 113.525 19.6719 113.527 19.6719C113.53 19.6719 113.532 19.6719 113.535 19.6719C113.537 19.6719 113.54 19.6719 113.542 19.6719C113.545 19.6719 113.547 19.6719 113.55 19.6719C113.553 19.6719 113.555 19.6719 113.558 19.6719C113.56 19.6719 113.563 19.6719 113.565 19.6719C113.568 19.6719 113.57 19.6719 113.573 19.6719C113.575 19.6719 113.578 19.6719 113.58 19.6719C113.583 19.6719 113.585 19.6719 113.588 19.6719C113.59 19.6719 113.593 19.6719 113.595 19.6719C113.598 19.6719 113.6 19.6719 113.603 19.6719C113.605 19.6719 113.608 19.6719 113.61 19.6719C113.613 19.6719 113.615 19.6719 113.618 19.6719C113.62 19.6719 113.623 19.6719 113.625 19.6719C113.628 19.6719 113.63 19.6719 113.633 19.6719C113.635 19.6719 113.638 19.6719 113.64 19.6719C113.643 19.6719 113.645 19.6719 113.647 19.6719C113.65 19.6719 113.652 19.6719 113.655 19.6719C113.657 19.6719 113.66 19.6719 113.662 19.6719C113.665 19.6719 113.667 19.6719 113.669 19.6719C113.672 19.6719 113.674 19.6719 113.677 19.6719C113.679 19.6719 113.682 19.6719 113.684 19.6719C113.686 19.6719 113.689 19.6719 113.691 19.6719C113.694 19.6719 113.696 19.6719 113.699 19.6719C113.701 19.6719 113.703 19.6719 113.706 19.6719C113.708 19.6719 113.711 19.6719 113.713 19.6719C113.715 19.6719 113.718 19.6719 113.72 19.6719C113.723 19.6719 113.725 19.6719 113.727 19.6719C113.73 19.6719 113.732 19.6719 113.735 19.6719C113.737 19.6719 113.739 19.6719 113.742 19.6719C113.744 19.6719 113.746 19.6719 113.749 19.6719C113.751 19.6719 113.753 19.6719 113.756 19.6719C113.758 19.6719 113.761 19.6719 113.763 19.6719C113.765 19.6719 113.768 19.6719 113.77 19.6719C113.772 19.6719 113.775 19.6719 113.777 19.6719C113.779 19.6719 113.782 19.6719 113.784 19.6719C113.786 19.6719 113.789 19.6719 113.791 19.6719C113.793 19.6719 113.796 19.6719 113.798 19.6719C113.8 19.6719 113.803 19.6719 113.805 19.6719C113.807 19.6719 113.81 19.6719 113.812 19.6719C113.814 19.6719 113.817 19.6719 113.819 19.6719C113.821 19.6719 113.823 19.6719 113.826 19.6719C113.828 19.6719 113.83 19.6719 113.833 19.6719C113.835 19.6719 113.837 19.6719 113.839 19.6719C113.842 19.6719 113.844 19.6719 113.846 19.6719C113.849 19.6719 113.851 19.6719 113.853 19.6719C113.855 19.6719 113.858 19.6719 113.86 19.6719C113.862 19.6719 113.864 19.6719 113.867 19.6719C113.869 19.6719 113.871 19.6719 113.873 19.6719C113.876 19.6719 113.878 19.6719 113.88 19.6719C113.882 19.6719 113.885 19.6719 113.887 19.6719C113.889 19.6719 113.891 19.6719 113.894 19.6719C113.896 19.6719 113.898 19.6719 113.9 19.6719C113.903 19.6719 113.905 19.6719 113.907 19.6719C113.909 19.6719 113.911 19.6719 113.914 19.6719C113.916 19.6719 113.918 19.6719 113.92 19.6719C113.923 19.6719 113.925 19.6719 113.927 19.6719C113.929 19.6719 113.931 19.6719 113.933 19.6719C113.936 19.6719 113.938 19.6719 113.94 19.6719C113.942 19.6719 113.944 19.6719 113.947 19.6719C113.949 19.6719 113.951 19.6719 113.953 19.6719C113.955 19.6719 113.958 19.6719 113.96 19.6719C113.962 19.6719 113.964 19.6719 113.966 19.6719C113.968 19.6719 113.97 19.6719 113.973 19.6719C113.975 19.6719 113.977 19.6719 113.979 19.6719C113.981 19.6719 113.983 19.6719 113.986 19.6719C113.988 19.6719 113.99 19.6719 113.992 19.6719C113.994 19.6719 113.996 19.6719 113.998 19.6719C114.001 19.6719 114.003 19.6719 114.005 19.6719C114.007 19.6719 114.009 19.6719 114.011 19.6719C114.013 19.6719 114.015 19.6719 114.017 19.6719C114.02 19.6719 114.022 19.6719 114.024 19.6719C114.026 19.6719 114.028 19.6719 114.03 19.6719C114.032 19.6719 114.034 19.6719 114.036 19.6719C114.038 19.6719 114.041 19.6719 114.043 19.6719C114.045 19.6719 114.047 19.6719 114.049 19.6719C114.051 19.6719 114.053 19.6719 114.055 19.6719C114.057 19.6719 114.059 19.6719 114.061 19.6719C114.063 19.6719 114.065 19.6719 114.068 19.6719C114.07 19.6719 114.072 19.6719 114.074 19.6719C114.076 19.6719 114.078 19.6719 114.08 19.6719C114.082 19.6719 114.084 19.6719 114.086 19.6719C114.088 19.6719 114.09 19.6719 114.092 19.6719C114.094 19.6719 114.096 19.6719 114.098 19.6719C114.1 19.6719 114.102 19.6719 114.104 19.6719C114.106 19.6719 114.108 19.6719 114.11 19.6719C114.112 19.6719 114.114 19.6719 114.116 19.6719C114.118 19.6719 114.12 19.6719 114.122 19.6719C114.124 19.6719 114.126 19.6719 114.128 19.6719C114.13 19.6719 114.132 19.6719 114.134 19.6719C114.136 19.6719 114.138 19.6719 114.14 19.6719C114.142 19.6719 114.144 19.6719 114.146 19.6719C114.148 19.6719 114.15 19.6719 114.152 19.6719C114.154 19.6719 114.156 19.6719 114.158 19.6719C114.16 19.6719 114.162 19.6719 114.164 19.6719C114.166 19.6719 114.168 19.6719 114.17 19.6719C114.172 19.6719 114.174 19.6719 114.176 19.6719C114.178 19.6719 114.18 19.6719 114.181 19.6719C114.183 19.6719 114.185 19.6719 114.187 19.6719C114.189 19.6719 114.191 19.6719 114.193 19.6719C114.195 19.6719 114.197 19.6719 114.199 19.6719C114.201 19.6719 114.203 19.6719 114.205 19.6719C114.206 19.6719 114.208 19.6719 114.21 19.6719C114.212 19.6719 114.214 19.6719 114.216 19.6719C114.218 19.6719 114.22 19.6719 114.222 19.6719C114.224 19.6719 114.225 19.6719 114.227 19.6719C114.229 19.6719 114.231 19.6719 114.233 19.6719C114.235 19.6719 114.237 19.6719 114.239 19.6719C114.241 19.6719 114.242 19.6719 114.244 19.6719C114.246 19.6719 114.248 19.6719 114.25 19.6719C114.252 19.6719 114.254 19.6719 114.255 19.6719C114.257 19.6719 114.259 19.6719 114.261 19.6719C114.263 19.6719 114.265 19.6719 114.267 19.6719C114.268 19.6719 114.27 19.6719 114.272 19.6719C114.274 19.6719 114.276 19.6719 114.278 19.6719C114.279 19.6719 114.281 19.6719 114.283 19.6719C114.285 19.6719 114.287 19.6719 114.288 19.6719C114.29 19.6719 114.292 19.6719 114.294 19.6719C114.296 19.6719 114.298 19.6719 114.299 19.6719C114.301 19.6719 114.303 19.6719 114.305 19.6719C114.307 19.6719 114.308 19.6719 114.31 19.6719C114.312 19.6719 114.314 19.6719 114.316 19.6719C114.317 19.6719 114.319 19.6719 114.321 19.6719C114.323 19.6719 114.324 19.6719 114.326 19.6719C114.328 19.6719 114.33 19.6719 114.331 19.6719C114.333 19.6719 114.335 19.6719 114.337 19.6719C114.339 19.6719 114.34 19.6719 114.342 19.6719C114.344 19.6719 114.346 19.6719 114.347 19.6719C114.349 19.6719 114.351 19.6719 114.353 19.6719C114.354 19.6719 114.356 19.6719 114.358 19.6719C114.359 19.6719 114.361 19.6719 114.363 19.6719C114.365 19.6719 114.366 19.6719 114.368 19.6719C114.37 19.6719 114.372 19.6719 114.373 19.6719C114.375 19.6719 114.377 19.6719 114.378 19.6719C114.38 19.6719 114.382 19.6719 114.384 19.6719C114.385 19.6719 114.387 19.6719 114.389 19.6719C114.39 19.6719 114.392 19.6719 114.394 19.6719C114.395 19.6719 114.397 19.6719 114.399 19.6719C114.4 19.6719 114.402 19.6719 114.404 19.6719C114.405 19.6719 114.407 19.6719 114.409 19.6719C114.41 19.6719 114.412 19.6719 114.414 19.6719C114.415 19.6719 114.417 19.6719 114.419 19.6719C114.42 19.6719 114.422 19.6719 114.424 19.6719C114.425 19.6719 114.427 19.6719 114.429 19.6719C114.43 19.6719 114.432 19.6719 114.434 19.6719C114.435 19.6719 114.437 19.6719 114.438 19.6719C114.44 19.6719 114.442 19.6719 114.443 19.6719C114.445 19.6719 114.447 19.6719 114.448 19.6719C114.45 19.6719 114.451 19.6719 114.453 19.6719C114.455 19.6719 114.456 19.6719 114.458 19.6719C114.46 19.6719 114.461 19.6719 114.463 19.6719C114.464 19.6719 114.466 19.6719 114.468 19.6719C114.469 19.6719 114.471 19.6719 114.472 19.6719C114.474 19.6719 114.475 19.6719 114.477 19.6719C114.479 19.6719 114.48 19.6719 114.482 19.6719C114.483 19.6719 114.485 19.6719 114.486 19.6719C114.488 19.6719 114.49 19.6719 114.491 19.6719C114.493 19.6719 114.494 19.6719 114.496 19.6719C114.497 19.6719 114.499 19.6719 114.5 19.6719C114.502 19.6719 114.504 19.6719 114.505 19.6719C114.507 19.6719 114.508 19.6719 114.51 19.6719C114.511 19.6719 114.513 19.6719 114.514 19.6719C114.516 19.6719 114.517 19.6719 114.519 19.6719C114.52 19.6719 114.522 19.6719 114.523 19.6719C114.525 19.6719 114.527 19.6719 114.528 19.6719C114.53 19.6719 114.531 19.6719 114.533 19.6719C114.534 19.6719 114.536 19.6719 114.537 19.6719C114.539 19.6719 114.54 19.6719 114.542 19.6719C114.543 19.6719 114.545 19.6719 114.546 19.6719C114.547 19.6719 114.549 19.6719 114.55 19.6719C114.552 19.6719 114.553 19.6719 114.555 19.6719C114.556 19.6719 114.558 19.6719 114.559 19.6719C114.561 19.6719 114.562 19.6719 114.564 19.6719C114.565 19.6719 114.567 19.6719 114.568 19.6719C114.569 19.6719 114.571 19.6719 114.572 19.6719C114.574 19.6719 114.575 19.6719 114.577 19.6719C114.578 19.6719 114.58 19.6719 114.581 19.6719C114.582 19.6719 114.584 19.6719 114.585 19.6719C114.587 19.6719 114.588 19.6719 114.59 19.6719C114.591 19.6719 114.592 19.6719 114.594 19.6719C114.595 19.6719 114.597 19.6719 114.598 19.6719C114.599 19.6719 114.601 19.6719 114.602 19.6719C114.604 19.6719 114.605 19.6719 114.606 19.6719C114.608 19.6719 114.609 19.6719 114.611 19.6719C114.612 19.6719 114.613 19.6719 114.615 19.6719C114.616 19.6719 114.618 19.6719 114.619 19.6719C114.62 19.6719 114.622 19.6719 114.623 19.6719C114.624 19.6719 114.626 19.6719 114.627 19.6719C114.628 19.6719 114.63 19.6719 114.631 19.6719C114.633 19.6719 114.634 19.6719 114.635 19.6719C114.637 19.6719 114.638 19.6719 114.639 19.6719C114.641 19.6719 114.642 19.6719 114.643 19.6719C114.645 19.6719 114.646 19.6719 114.647 19.6719C114.649 19.6719 114.65 19.6719 114.651 19.6719C114.653 19.6719 114.654 19.6719 114.655 19.6719C114.657 19.6719 114.658 19.6719 114.659 19.6719C114.661 19.6719 114.662 19.6719 114.663 19.6719C114.664 19.6719 114.666 19.6719 114.667 19.6719C114.668 19.6719 114.67 19.6719 114.671 19.6719C114.672 19.6719 114.674 19.6719 114.675 19.6719C114.676 19.6719 114.677 19.6719 114.679 19.6719C114.68 19.6719 114.681 19.6719 114.682 19.6719C114.684 19.6719 114.685 19.6719 114.686 19.6719C114.688 19.6719 114.689 19.6719 114.69 19.6719C114.691 19.6719 114.693 19.6719 114.694 19.6719C114.695 19.6719 114.696 19.6719 114.698 19.6719C114.699 19.6719 114.7 19.6719 114.701 19.6719C114.703 19.6719 114.704 19.6719 114.705 19.6719C114.706 19.6719 114.708 19.6719 114.709 19.6719C114.71 19.6719 114.711 19.6719 114.712 19.6719C114.714 19.6719 114.715 19.6719 114.716 19.6719C114.717 19.6719 114.718 19.6719 114.72 19.6719C114.721 19.6719 114.722 19.6719 114.723 19.6719C114.725 19.6719 114.726 19.6719 114.727 19.6719C114.728 19.6719 114.729 19.6719 114.731 19.6719C114.732 19.6719 114.733 19.6719 114.734 19.6719C114.735 19.6719 114.736 19.6719 114.738 19.6719C114.739 19.6719 114.74 19.6719 114.741 19.6719C114.742 19.6719 114.743 19.6719 114.745 19.6719C114.746 19.6719 114.747 19.6719 114.748 19.6719C114.749 19.6719 114.75 19.6719 114.752 19.6719C114.753 19.6719 114.754 19.6719 114.755 19.6719C114.756 19.6719 114.757 19.6719 114.758 19.6719C114.76 19.6719 114.761 19.6719 114.762 19.6719C114.763 19.6719 114.764 19.6719 114.765 19.6719C114.766 19.6719 114.767 19.6719 114.769 19.6719C114.77 19.6719 114.771 19.6719 114.772 19.6719C114.773 19.6719 114.774 19.6719 114.775 19.6719C114.776 19.6719 114.778 19.6719 114.779 19.6719C114.78 19.6719 114.781 19.6719 114.782 19.6719C114.783 19.6719 114.784 19.6719 114.785 19.6719C114.786 19.6719 114.787 19.6719 114.788 19.6719C114.789 19.6719 114.791 19.6719 114.792 19.6719C114.793 19.6719 114.794 19.6719 114.795 19.6719C114.796 19.6719 114.797 19.6719 114.798 19.6719C114.799 19.6719 114.8 19.6719 114.801 19.6719C114.802 19.6719 114.803 19.6719 114.804 19.6719C114.805 19.6719 114.806 19.6719 114.808 19.6719C114.809 19.6719 114.81 19.6719 114.811 19.6719C114.812 19.6719 114.813 19.6719 114.814 19.6719C114.815 19.6719 114.816 19.6719 114.817 19.6719C114.818 19.6719 114.819 19.6719 114.82 19.6719C114.821 19.6719 114.822 19.6719 114.823 19.6719C114.824 19.6719 114.825 19.6719 114.826 19.6719C114.827 19.6719 114.828 19.6719 114.829 19.6719C114.83 19.6719 114.831 19.6719 114.832 19.6719C114.833 19.6719 114.834 19.6719 114.835 19.6719C114.836 19.6719 114.837 19.6719 114.838 19.6719C114.839 19.6719 114.84 19.6719 114.841 19.6719C114.842 19.6719 114.843 19.6719 114.844 19.6719C114.845 19.6719 114.846 19.6719 114.847 19.6719C114.848 19.6719 114.848 19.6719 114.849 19.6719C114.85 19.6719 114.851 19.6719 114.852 19.6719C114.853 19.6719 114.854 19.6719 114.855 19.6719C114.856 19.6719 114.857 19.6719 114.858 19.6719C114.859 19.6719 114.86 19.6719 114.861 19.6719C114.862 19.6719 114.863 19.6719 114.864 19.6719C114.864 19.6719 114.865 19.6719 114.866 19.6719C114.867 19.6719 114.868 19.6719 114.869 19.6719C114.87 19.6719 114.871 19.6719 114.872 19.6719C114.873 19.6719 114.874 19.6719 114.874 19.6719C114.875 19.6719 114.876 19.6719 114.877 19.6719C114.878 19.6719 114.879 19.6719 114.88 19.6719C114.881 19.6719 114.882 19.6719 114.882 19.6719C114.883 19.6719 114.884 19.6719 114.885 19.6719C114.886 19.6719 114.887 19.6719 114.888 19.6719C114.888 19.6719 114.889 19.6719 114.89 19.6719C114.891 19.6719 114.892 19.6719 114.893 19.6719C114.894 19.6719 114.894 19.6719 114.895 19.6719C114.896 19.6719 114.897 19.6719 114.898 19.6719C114.899 19.6719 114.899 19.6719 114.9 19.6719C114.901 19.6719 114.902 19.6719 114.903 19.6719C114.904 19.6719 114.904 19.6719 114.905 19.6719C114.906 19.6719 114.907 19.6719 114.908 19.6719C114.909 19.6719 114.909 19.6719 114.91 19.6719C114.911 19.6719 114.912 19.6719 114.913 19.6719C114.913 19.6719 114.914 19.6719 114.915 19.6719C114.916 19.6719 114.917 19.6719 114.917 19.6719C114.918 19.6719 114.919 19.6719 114.92 19.6719C114.92 19.6719 114.921 19.6719 114.922 19.6719C114.923 19.6719 114.924 19.6719 114.924 19.6719C114.925 19.6719 114.926 19.6719 114.927 19.6719C114.927 19.6719 114.928 19.6719 114.929 19.6719C114.93 19.6719 114.93 19.6719 114.931 19.6719C114.932 19.6719 114.933 19.6719 114.933 19.6719C114.934 19.6719 114.935 19.6719 114.936 19.6719C114.936 19.6719 114.937 19.6719 114.938 19.6719C114.939 19.6719 114.939 19.6719 114.94 19.6719C114.941 19.6719 114.941 19.6719 114.942 19.6719C114.943 19.6719 114.944 19.6719 114.944 19.6719C114.945 19.6719 114.946 19.6719 114.946 19.6719C114.947 19.6719 114.948 19.6719 114.948 19.6719C114.949 19.6719 114.95 19.6719 114.951 19.6719C114.951 19.6719 114.952 19.6719 114.953 19.6719C114.953 19.6719 114.954 19.6719 114.955 19.6719C114.955 19.6719 114.956 19.6719 114.957 19.6719C114.957 19.6719 114.958 19.6719 114.959 19.6719C114.959 19.6719 114.96 19.6719 114.961 19.6719C114.961 19.6719 114.962 19.6719 114.963 19.6719C114.963 19.6719 114.964 19.6719 114.965 19.6719C114.965 19.6719 114.966 19.6719 114.967 19.6719C114.967 19.6719 114.968 19.6719 114.968 19.6719C114.969 19.6719 114.97 19.6719 114.97 19.6719C114.971 19.6719 114.972 19.6719 114.972 19.6719C114.973 19.6719 114.973 19.6719 114.974 19.6719C114.975 19.6719 114.975 19.6719 114.976 19.6719C114.977 19.6719 114.977 19.6719 114.978 19.6719C114.978 19.6719 114.979 19.6719 114.98 19.6719C114.98 19.6719 114.981 19.6719 114.981 19.6719C114.982 19.6719 114.982 19.6719 114.983 19.6719C114.984 19.6719 114.984 19.6719 114.985 19.6719C114.985 19.6719 114.986 19.6719 114.986 19.6719C114.987 19.6719 114.988 19.6719 114.988 19.6719C114.989 19.6719 114.989 19.6719 114.99 19.6719C114.99 19.6719 114.991 19.6719 114.992 19.6719C114.992 19.6719 114.993 19.6719 114.993 19.6719C114.994 19.6719 114.994 19.6719 114.995 19.6719C114.995 19.6719 114.996 19.6719 114.996 19.6719C114.997 19.6719 114.997 19.6719 114.998 19.6719C114.998 19.6719 114.999 19.6719 115 19.6719C115 19.6719 115.001 19.6719 115.001 19.6719C115.002 19.6719 115.002 19.6719 115.003 19.6719C115.003 19.6719 115.004 19.6719 115.004 19.6719C115.005 19.6719 115.005 19.6719 115.006 19.6719C115.006 19.6719 115.007 19.6719 115.007 19.6719C115.008 19.6719 115.008 19.6719 115.009 19.6719C115.009 19.6719 115.009 19.6719 115.01 19.6719C115.01 19.6719 115.011 19.6719 115.011 19.6719C115.012 19.6719 115.012 19.6719 115.013 19.6719C115.013 19.6719 115.014 19.6719 115.014 19.6719C115.015 19.6719 115.015 19.6719 115.015 19.6719C115.016 19.6719 115.016 19.6719 115.017 19.6719C115.017 19.6719 115.018 19.6719 115.018 19.6719C115.019 19.6719 115.019 19.6719 115.019 19.6719C115.02 19.6719 115.02 19.6719 115.021 19.6719C115.021 19.6719 115.022 19.6719 115.022 19.6719C115.022 19.6719 115.023 19.6719 115.023 19.6719C115.024 19.6719 115.024 19.6719 115.024 19.6719C115.025 19.6719 115.025 19.6719 115.026 19.6719C115.026 19.6719 115.026 19.6719 115.027 19.6719C115.027 19.6719 115.028 19.6719 115.028 19.6719C115.028 19.6719 115.029 19.6719 115.029 19.6719C115.029 19.6719 115.03 19.6719 115.03 19.6719C115.031 19.6719 115.031 19.6719 115.031 19.6719C115.032 19.6719 115.032 19.6719 115.032 19.6719C115.033 19.6719 115.033 19.6719 115.033 19.6719C115.034 19.6719 115.034 19.6719 115.035 19.6719C115.035 19.6719 115.035 19.6719 115.036 19.6719C115.036 19.6719 115.036 19.6719 115.037 19.6719C115.037 19.6719 115.037 19.6719 115.038 19.6719C115.038 19.6719 115.038 19.6719 115.039 19.6719C115.039 19.6719 115.039 19.6719 115.039 19.6719C115.04 19.6719 115.04 19.6719 115.04 19.6719C115.041 19.6719 115.041 19.6719 115.041 19.6719C115.042 19.6719 115.042 19.6719 115.042 19.6719C115.042 19.6719 115.043 19.6719 115.043 19.6719C115.043 19.6719 115.044 19.6719 115.044 19.6719C115.044 19.6719 115.044 19.6719 115.045 19.6719C115.045 19.6719 115.045 19.6719 115.046 19.6719C115.046 19.6719 115.046 19.6719 115.046 19.6719C115.047 19.6719 115.047 19.6719 115.047 19.6719C115.047 19.6719 115.048 19.6719 115.048 19.6719C115.048 19.6719 115.048 19.6719 115.049 19.6719C115.049 19.6719 115.049 19.6719 115.049 19.6719C115.05 19.6719 115.05 19.6719 115.05 19.6719C115.05 19.6719 115.051 19.6719 115.051 19.6719C115.051 19.6719 115.051 19.6719 115.051 19.6719C115.052 19.6719 115.052 19.6719 115.052 19.6719C115.052 19.6719 115.052 19.6719 115.053 19.6719C115.053 19.6719 115.053 19.6719 115.053 19.6719C115.053 19.6719 115.054 19.6719 115.054 19.6719C115.054 19.6719 115.054 19.6719 115.054 19.6719C115.055 19.6719 115.055 19.6719 115.055 19.6719C115.055 19.6719 115.055 19.6719 115.056 19.6719C115.056 19.6719 115.056 19.6719 115.056 19.6719C115.056 19.6719 115.056 19.6719 115.057 19.6719C115.057 19.6719 115.057 19.6719 115.057 19.6719C115.057 19.6719 115.057 19.6719 115.057 19.6719C115.058 19.6719 115.058 19.6719 115.058 19.6719C115.058 19.6719 115.058 19.6719 115.058 19.6719C115.058 19.6719 115.059 19.6719 115.059 19.6719C115.059 19.6719 115.059 19.6719 115.059 19.6719C115.059 19.6719 115.059 19.6719 115.059 19.6719C115.06 19.6719 115.06 19.6719 115.06 19.6719C115.06 19.6719 115.06 19.6719 115.06 19.6719C115.06 19.6719 115.06 19.6719 115.06 19.6719C115.06 19.6719 115.061 19.6719 115.061 19.6719C115.061 19.6719 115.061 19.6719 115.061 19.6719C115.061 19.6719 115.061 19.6719 115.061 19.6719C115.061 19.6719 115.061 19.6719 115.061 19.6719C115.061 19.6719 115.061 19.6719 115.062 19.6719C115.062 19.6719 115.062 19.6719 115.062 19.6719C115.062 19.6719 115.062 19.6719 115.062 19.6719C115.062 19.6719 115.062 19.6719 115.062 19.6719C115.062 19.6719 115.062 19.6719 115.062 19.6719C115.062 19.6719 115.062 19.6719 115.062 19.6719C115.062 19.6719 115.062 19.6719 115.062 19.6719C115.062 19.6719 115.062 19.6719 115.062 19.6719C115.062 19.6719 115.062 19.6719 115.062 19.6719C115.062 19.6719 115.062 19.6719 115.062 19.6719C115.062 19.6719 115.062 19.6719 115.062 18.6719ZM112.547 17.6719C109.939 17.6719 107.981 17.5573 106.644 17.341L106.325 19.3153C107.821 19.5573 109.904 19.6719 112.547 19.6719V17.6719ZM105.484 18.3281C105.484 20.7427 105.777 22.6721 106.547 23.8812L108.234 22.8063C107.796 22.1195 107.484 20.7053 107.484 18.3281H105.484ZM106.548 23.8826C107.563 25.4696 109.478 26.0781 111.812 26.0781V24.0781C109.73 24.0781 108.697 23.5304 108.233 22.8049L106.548 23.8826ZM111.812 26.0781C114.155 26.0781 116.404 25.6187 118.55 24.7006L117.763 22.8619C115.867 23.673 113.886 24.0781 111.812 24.0781V26.0781ZM117.21 24.1054L117.976 26.3398L119.868 25.6915L119.102 23.4571L117.21 24.1054ZM117.469 16.5V15H115.469V16.5H117.469ZM117.469 15C117.469 13.2829 117.144 11.8034 116.255 10.8268L114.776 12.1732C115.158 12.5925 115.469 13.4463 115.469 15H117.469ZM116.256 10.8283C115.266 9.73556 113.689 9.32812 111.844 9.32812V11.3281C113.478 11.3281 114.349 11.7019 114.775 12.1717L116.256 10.8283ZM111.844 9.32812C109.678 9.32812 107.867 9.78807 106.812 11.0447L108.344 12.3303C108.811 11.7744 109.843 11.3281 111.844 11.3281V9.32812ZM106.814 11.0428C105.837 12.2012 105.484 14.1311 105.484 16.5H107.484C107.484 14.1814 107.861 12.903 108.343 12.3322L106.814 11.0428ZM106.484 17.5H116.469V15.5H106.484V17.5ZM126.234 0.4375L126.15 -0.55892L125.233 -0.481153L125.234 0.438676L126.234 0.4375ZM128.812 0.21875H129.812V-0.869692L128.728 -0.77767L128.812 0.21875ZM128.812 27V28H129.812V27H128.812ZM126.266 27L125.266 27.0012L125.267 28H126.266V27ZM126.319 1.43392L128.897 1.21517L128.728 -0.77767L126.15 -0.55892L126.319 1.43392ZM127.812 0.21875V27H129.812V0.21875H127.812ZM128.812 26H126.266V28H128.812V26ZM127.266 26.9988L127.234 0.436324L125.234 0.438676L125.266 27.0012L127.266 26.9988ZM146.328 29.8906H147.328V28.8906H146.328V29.8906ZM146.328 31.7344V32.7344H147.328V31.7344H146.328ZM132.766 31.7344H131.766V32.7344H132.766V31.7344ZM132.766 29.8906V28.8906H131.766V29.8906H132.766ZM145.328 29.8906V31.7344H147.328V29.8906H145.328ZM146.328 30.7344H132.766V32.7344H146.328V30.7344ZM133.766 31.7344V29.8906H131.766V31.7344H133.766ZM132.766 30.8906H146.328V28.8906H132.766V30.8906ZM154.812 3.09375V2.09375H154.088L153.862 2.78256L154.812 3.09375ZM158.453 3.09375L159.397 2.76367L159.163 2.09375H158.453V3.09375ZM166.812 27V28H168.222L167.756 26.6699L166.812 27ZM163.984 27L163.037 27.3207L163.267 28H163.984V27ZM161.609 19.9844L162.557 19.6637L162.327 18.9844H161.609V19.9844ZM151.984 19.9844V18.9844H151.255L151.032 19.679L151.984 19.9844ZM149.734 27V28H150.464L150.687 27.3054L149.734 27ZM146.984 27L146.034 26.6888L145.605 28H146.984V27ZM160.859 17.75V18.75H162.251L161.807 17.4313L160.859 17.75ZM156.641 5.20312L157.588 4.88442L156.539 1.7644L155.676 4.94072L156.641 5.20312ZM156.156 6.98438L157.108 7.2898L157.115 7.26843L157.121 7.24678L156.156 6.98438ZM152.703 17.75L151.751 17.4446L151.332 18.75H152.703V17.75ZM154.812 4.09375H158.453V2.09375H154.812V4.09375ZM157.509 3.42383L165.869 27.3301L167.756 26.6699L159.397 2.76367L157.509 3.42383ZM166.812 26H163.984V28H166.812V26ZM164.932 26.6793L162.557 19.6637L160.662 20.305L163.037 27.3207L164.932 26.6793ZM161.609 18.9844H151.984V20.9844H161.609V18.9844ZM151.032 19.679L148.782 26.6946L150.687 27.3054L152.937 20.2898L151.032 19.679ZM149.734 26H146.984V28H149.734V26ZM147.935 27.3112L155.763 3.40494L153.862 2.78256L146.034 26.6888L147.935 27.3112ZM161.807 17.4313L157.588 4.88442L155.693 5.52183L159.912 18.0687L161.807 17.4313ZM155.676 4.94072L155.191 6.72197L157.121 7.24678L157.606 5.46553L155.676 4.94072ZM155.204 6.67895L151.751 17.4446L153.655 18.0554L157.108 7.2898L155.204 6.67895ZM152.703 18.75H160.859V16.75H152.703V18.75ZM180.547 19.5L180.596 20.4989L180.609 20.4981L180.547 19.5ZM173.875 19.1094L174.023 18.1203L172.875 17.9491V19.1094H173.875ZM173.875 27V28H174.875V27H173.875ZM171.219 27H170.219V28H171.219V27ZM171.219 3.1875L171.126 2.19178L170.219 2.27599V3.1875H171.219ZM185.562 4.46875L184.815 5.13354L184.816 5.13412L185.562 4.46875ZM186.281 15.4375L187.234 15.7407L187.236 15.7339L186.281 15.4375ZM173.875 5.1875L173.798 4.19049L172.875 4.26197V5.1875H173.875ZM173.875 16.9062H172.875V17.7834L173.745 17.8977L173.875 16.9062ZM181.797 16.9688L182.103 17.9207L182.113 17.9174L181.797 16.9688ZM183.25 15.9375L182.438 15.3543L182.437 15.3546L183.25 15.9375ZM183.25 5.96875L182.501 6.63159L182.507 6.63836L182.513 6.64502L183.25 5.96875ZM180.498 18.5012C180.098 18.5207 179.371 18.5312 178.297 18.5312V20.5312C179.369 20.5312 180.141 20.521 180.596 20.4988L180.498 18.5012ZM178.297 18.5312C177.308 18.5312 175.891 18.399 174.023 18.1203L173.727 20.0984C175.63 20.3822 177.161 20.5312 178.297 20.5312V18.5312ZM172.875 19.1094V27H174.875V19.1094H172.875ZM173.875 26H171.219V28H173.875V26ZM172.219 27V3.1875H170.219V27H172.219ZM171.311 4.18322C174.312 3.90478 177.297 3.76562 180.266 3.76562V1.76562C177.234 1.76562 174.188 1.90772 171.126 2.19178L171.311 4.18322ZM180.266 3.76562C182.682 3.76562 184.089 4.31707 184.815 5.13354L186.31 3.80396C185.015 2.3496 182.891 1.76562 180.266 1.76562V3.76562ZM184.816 5.13412C185.424 5.81649 185.844 7.09369 185.844 9.21875H187.844C187.844 6.92714 187.409 5.03767 186.309 3.80338L184.816 5.13412ZM185.844 9.21875V11.0625H187.844V9.21875H185.844ZM185.844 11.0625C185.844 12.7031 185.663 14.0557 185.326 15.1411L187.236 15.7339C187.649 14.4027 187.844 12.8386 187.844 11.0625H185.844ZM185.328 15.1343C184.984 16.2157 184.424 16.9924 183.668 17.5278C182.902 18.0702 181.863 18.4164 180.485 18.5019L180.609 20.4981C182.252 20.3961 183.678 19.9715 184.824 19.1597C185.98 18.341 186.776 17.1802 187.234 15.7407L185.328 15.1343ZM180.375 4.01562C177.514 4.01562 175.316 4.07285 173.798 4.19049L173.952 6.18451C175.392 6.07298 177.528 6.01562 180.375 6.01562V4.01562ZM172.875 5.1875V16.9062H174.875V5.1875H172.875ZM173.745 17.8977C175.599 18.1414 177.264 18.2656 178.734 18.2656V16.2656C177.372 16.2656 175.797 16.1503 174.005 15.9148L173.745 17.8977ZM178.734 18.2656C180.171 18.2656 181.328 18.1703 182.103 17.9206L181.49 16.0169C181.036 16.1631 180.152 16.2656 178.734 16.2656V18.2656ZM182.113 17.9174C182.913 17.6507 183.582 17.1906 184.063 16.5204L182.437 15.3546C182.231 15.6428 181.93 15.8702 181.481 16.0201L182.113 17.9174ZM184.062 16.5207C184.479 15.9404 184.733 15.166 184.89 14.295C185.05 13.4086 185.125 12.3366 185.125 11.0938H183.125C183.125 12.2676 183.054 13.2112 182.922 13.9394C182.788 14.6829 182.604 15.1221 182.438 15.3543L184.062 16.5207ZM185.125 11.0938V9.15625H183.125V11.0938H185.125ZM185.125 9.15625C185.125 7.58359 184.826 6.20675 183.987 5.29248L182.513 6.64502C182.841 7.00158 183.125 7.74974 183.125 9.15625H185.125ZM183.999 5.30591C183.158 4.35642 181.848 4.01562 180.375 4.01562V6.01562C181.61 6.01562 182.217 6.31025 182.501 6.63159L183.999 5.30591ZM192.281 23.5781L191.809 22.6968L190.961 23.1516L191.382 24.0165L192.281 23.5781ZM205.016 16.75L205.488 17.6313L207.17 16.7293L205.471 15.8598L205.016 16.75ZM192.281 10.2344L191.382 9.7961L190.952 10.6778L191.826 11.1246L192.281 10.2344ZM193.203 8.34375L193.661 7.45484L192.752 6.9865L192.304 7.90547L193.203 8.34375ZM207.484 15.7031H208.484V15.0935L207.942 14.8142L207.484 15.7031ZM207.484 17.8594L207.957 18.7409L208.484 18.4582V17.8594H207.484ZM193.219 25.5L192.32 25.9384L192.775 26.8719L193.691 26.3815L193.219 25.5ZM192.754 24.4594L205.488 17.6313L204.543 15.8687L191.809 22.6968L192.754 24.4594ZM205.471 15.8598L192.737 9.34414L191.826 11.1246L204.56 17.6402L205.471 15.8598ZM193.18 10.6727L194.102 8.78203L192.304 7.90547L191.382 9.7961L193.18 10.6727ZM192.745 9.23266L207.026 16.592L207.942 14.8142L193.661 7.45484L192.745 9.23266ZM206.484 15.7031V17.8594H208.484V15.7031H206.484ZM207.012 16.9779L192.747 24.6185L193.691 26.3815L207.957 18.7409L207.012 16.9779ZM194.118 25.0616L193.18 23.1397L191.382 24.0165L192.32 25.9384L194.118 25.0616Z" fill="black" mask="url(#path-1-outside-1_3_3)"/>
</g>
<defs>
<filter id="filter0_d_3_3" x="0.484375" y="0.15625" width="211" height="39.5781" filterUnits="userSpaceOnUse" color-interpolation-filters="sRGB">
<feFlood flood-opacity="0" result="BackgroundImageFix"/>
<feColorMatrix in="SourceAlpha" type="matrix" values="0 0 0 0 0 0 0 0 0 0 0 0 0 0 0 0 0 0 127 0" result="hardAlpha"/>
<feOffset dy="4"/>
<feGaussianBlur stdDeviation="2"/>
<feComposite in2="hardAlpha" operator="out"/>
<feColorMatrix type="matrix" values="0 0 0 0 0 0 0 0 0 0 0 0 0 0 0 0 0 0 0.25 0"/>
<feBlend mode="normal" in2="BackgroundImageFix" result="effect1_dropShadow_3_3"/>
<feBlend mode="normal" in="SourceGraphic" in2="effect1_dropShadow_3_3" result="shape"/>
</filter>
</defs>
</svg>
